<?xml version="1.0" encoding="UTF-8"?>
<svg id="_レイヤー_2" data-name="レイヤー 2" xmlns="http://www.w3.org/2000/svg" viewBox="0 0 25 37.5">
  <defs>
    <style>
      .cls-1 {
        fill: #b3b3b3;
      }

      .cls-2 {
        opacity: .39;
      }
    </style>
  </defs>
  <g id="top">
    <g id="bg">
      <g class="cls-2">
        <path class="cls-1" d="m0,37.5V8.35c0-2.3.82-4.27,2.47-5.9C4.12.82,6.08,0,8.35,0h8.35c2.27,0,4.22.83,5.85,2.47,1.63,1.65,2.45,3.61,2.45,5.88v29.15h-8.3v-16.65h-8.35v16.65H0Zm8.35-20.85h8.35v-8.3c0-1.17-.41-2.16-1.22-2.97-.82-.82-1.81-1.22-2.97-1.22s-2.11.41-2.93,1.22c-.82.82-1.22,1.81-1.22,2.97v8.3Z"/>
      </g>
    </g>
  </g>
</svg>