<?xml version="1.0" encoding="UTF-8"?>
<svg id="_レイヤー_2" data-name="レイヤー 2" xmlns="http://www.w3.org/2000/svg" viewBox="0 0 475.34 290.83">
  <defs>
    <style>
      .cls-1 {
        fill: #f28704;
      }

      .cls-2 {
        fill: #fff;
      }
    </style>
  </defs>
  <g id="about">
    <g id="item">
      <g>
        <polygon class="cls-2" points="355.59 0 274.82 72.56 313.05 78.29 355.59 0"/>
        <polygon class="cls-2" points="368.37 86.57 38.03 37.08 2.99 232.79 128.54 289.03 448.45 206.4 368.37 86.57"/>
      </g>
      <g>
        <polygon class="cls-1" points="193.59 290.83 193.01 288.65 471.71 214.99 402.28 111.12 404.16 109.86 475.34 216.37 193.59 290.83"/>
        <polygon class="cls-1" points="2.22 165.4 0 165 25.63 21.82 66.81 28.36 189.28 46.7 188.94 48.94 66.46 30.59 27.47 24.4 2.22 165.4"/>
      </g>
      <g>
        <path d="m52.36,97.55h-.8v-11.05h4.23v.71h-3.43v10.34Z"/>
        <path d="m62.65,89.82l-2.02,6.19,1.12.85v1.34l-1.47-1.12-.69,2.13h-1.06l.91-2.79-1.54-1.19.78-4.43h-1.09v-.99h1.27l.45-2.58h1.06l-.45,2.58h2.72Zm-3.6,4.97l.74.56,1.47-4.54h-1.51l-.7,3.98Zm10.38-2.31v1.05h-3.32v5.66h-2.33v-1.04h1.26v-4.62h-3.03v-1.05h3.03v-1.5h.85l1.15-2.24h-4.06v-1.04h5.79l-2.44,4.78h3.1Z"/>
        <path d="m83.31,92.41v1.04h-1.69v5.77h-1.09v-5.77h-8.84v-1.04h11.63Zm-.17-.29l-5.76-1.2-5.53,1.25v-1.06l5.01-1.13v-.81h-4.99v-.99h4.99v-.91h1.06v.91h5.18v.99h-5.18v.8l5.21,1.11v1.06Zm-9.76,6.09v-4.03h4.54v4.03h-4.54Zm1.05-3.04v2.04h2.42v-2.04h-2.42Z"/>
        <path d="m87.09,93.45h1.15l-1.65,4.86h-1.15l1.65-4.86Zm2.8,4.62h5.79v1.05h-6.88v-8.77h1.09v7.72Zm4.4-8.71v1.18l-4.8-2.14v-1.18l4.8,2.14Zm.14,3.43h1.15l2.04,5.01h-1.16l-2.03-5.01Z"/>
        <path d="m102.04,97.57h8.42v1.06h-9.48v-5.36l2.25-3.22h.88v-2.35h1.08v2.35h4.24v1.06h-4.24v2.06h-1.08v-2.06h-.38l-1.69,2.42v4.03Z"/>
        <path d="m125.42,98.07v1.15l-5.44-2.87v2.87h-1.05v-2.8l-5.35,2.83v-1.12l4.55-2.41h-4.38v-1.04h5.18v-.83h1.05v.83h5.25v1.04h-4.29l4.47,2.35Zm-8.53-6.43v1.18l-3.03,1.64v-1.16l3.03-1.65Zm0-2.35v1.2l-2.96-1.85v-1.2l2.96,1.85Zm4.94-1.06v5.44h-4.68v-5.44h1.46l.45-1.05h1.13l-.43,1.05h2.07Zm-1.02.99h-2.63v1.06h2.63v-1.06Zm-2.63,3.46h2.63v-1.39h-2.63v1.39Zm6.88-5.25v1.23l-2.98,1.99v-1.23l2.98-1.99Zm.08,5.85v1.18l-3.07-1.65v-1.18l3.07,1.65Z"/>
        <path d="m137.27,92.31h1.06v3.7l-1.95,2.79h-6.93v-9.68l-.25-1.37h1.09l.22,1.27v8.73h5.32l1.43-2.05v-3.39Z"/>
        <path d="m146.07,97.54l.38-2.09h1.06l-.55,3.12h-4.41v-9.93l3.38-.6v1.05l-2.31.41v8.04h2.45Zm3.82-8.39l2.65.46v8.36h-1.06v-7.49l-1.58-.28v-1.05Z"/>
        <path d="m158.18,88.92h8.53v7.56l-1.58,2.25h-2.9v-1.02h2.37s1.06-1.53,1.06-1.53v-6.23h-6.95l-1.4,2v4.92h2.58l1.05-6h1.06l-1.25,7.03h-4.5v-6.25l1.92-2.75Z"/>
        <path d="m173.23,94.79v1.21l-3.64,2.02v-1.2l1.41-.78v-4.57h-1.41v-1.05h1.41v-3.05h1.04v3.05h1.19v1.05h-1.19v3.99l1.19-.66Zm4.71,3.25h3.49v1.04h-4.52v-4.86h-.25l-2.83,5h-1.19l2.83-5h-1.92v-6.08h2.38l.52-.97h1.16l-.5.97h3.36v6.08h-2.52v2.59l.21-.03.83-2.28h.97l-.77,2.14.73-.1-.32-.94h.97l.73,2.12h-.97l-.11-.32-2.26.31v.34Zm-1.55-8.9h-1.79v1.44h1.79v-1.44Zm-1.79,2.45v1.61h1.79v-1.61h-1.79Zm4.82-1.01v-1.44h-2.03v1.44h2.03Zm-2.03,2.62h2.03v-1.61h-2.03v1.61Z"/>
        <path d="m186.64,88.79h.8v11.04h-4.23v-.71h3.43v-10.32Z"/>
        <path d="m191.86,96.14c.92,0,1.67.74,1.67,1.67s-.74,1.67-1.67,1.67-1.67-.74-1.67-1.67.74-1.67,1.67-1.67Zm0,.71c-.52,0-.95.42-.95.95s.43.95.95.95.95-.43.95-.95-.42-.95-.95-.95Z"/>
        <path d="m55.9,119.9h-1.26l-.81-1.02v4.85h-1.05v-4.57l-2.19,2.79v-1.71l2.19-2.79v-1.27h-2.19v-1.04h2.19v-1.86l-1.72.28v-1.08l4.5-.7v1.06l-1.72.27v2.03h2.47v1.04h-2.47v1.11l2.07,2.62Zm6.49,3.82h-1.11l-.18-.76-5.97.59v-1.04l.8-.07,2.49-10.56h1.12l-2.47,10.45,3.78-.38-1.04-4.41h1.09l1.47,6.18Z"/>
        <path d="m75.46,114.59h-7.37v1.61h5.62v1.92h1.37v.99h-1.37v1.5h-1.08v-1.5h-3.89l-1.6,2.3v.7h8.28v1.02h-9.31v-2.02l2.1-3h4.43v-.94h-5.6v-2.59h-1.47v-1.04h1.47v-1.36h1.06v1.36h7.37v1.04Z"/>
        <path d="m89.63,117.21l.77,1.11h-11.65v-1.11h10.88Z"/>
        <path d="m104.3,114.9h-11.58v-1.06h11.58v1.06Zm-10.02,4.78h8.45v3.94h-8.45v-3.94Zm8.26-2.84h-8.08v-1.05h8.08v1.05Zm0,1.95h-8.08v-1.05h8.08v1.05Zm-.22-5.9h-7.65v-1.05h7.65v1.05Zm-6.99,9.69h6.33v-1.89h-6.33v1.89Z"/>
        <path d="m109.84,119.08v2.98h7.47v1.05h-8.54v-4.57l5.95-4.16h-7.51v-1.05h10.6v1.05h-1.26l-6.71,4.69Zm5.34-2.66h.83l1.47,2.09h-.83l-1.47-2.09Zm1.93-.83l1.47,2.09h-.83l-1.46-2.09h.81Z"/>
        <path d="m132.3,114.9h-11.58v-1.06h11.58v1.06Zm-10.02,4.78h8.45v3.94h-8.45v-3.94Zm8.26-2.84h-8.08v-1.05h8.08v1.05Zm0,1.95h-8.08v-1.05h8.08v1.05Zm-.22-5.9h-7.65v-1.05h7.65v1.05Zm-6.99,9.69h6.33v-1.89h-6.33v1.89Z"/>
        <path d="m137.42,115.57h7.83v4.58l-2.21,3.15h-5.94v-1.05h5.42l1.69-2.42v-3.22h-6.4l-2.12,1.48v-1.32l1.72-1.2Zm3.08-3.17l3.52.62v1.06l-3.56-.63-3.42.6v-1.05l3.46-.6Z"/>
        <path d="m151.04,122.07h8.42v1.06h-9.48v-5.36l2.25-3.22h.88v-2.35h1.08v2.35h4.24v1.06h-4.24v2.06h-1.08v-2.06h-.38l-1.69,2.42v4.03Z"/>
        <path d="m164.69,122.08h8.71v1.05h-9.78v-4.38l1.02-1.46h1.29l-1.25,1.77v3.03Zm-.62-8.99h8.8v2.69h-1.05v-1.64h-7.75v-1.05Z"/>
        <path d="m186.14,122.22h1.58v1.02h-2.63v-6.02h-4.19l-1.06,6.02h-1.64v-11.05h1.08v8.99l.88-5h5.98v6.04Z"/>
        <path d="m201.3,114.77h-8.03v8.38h-1.05v-8.38h-1.19v-1.04h1.19v-1.54h1.05v1.54h8.03v1.04Zm-.92,5.37h1.33v.99h-1.33v.27l-1.22,1.74h-4.92v-3.89h5.1v-2.26h1.04v3.15Zm-1.04.94v-.84h-4.09v1.92h3.33l.76-1.08Zm-2.97-5.53h5.6v.95h-5.6v-.95Z"/>
        <path d="m204.64,123.45l1.88-2.68h1.33l-1.88,2.68h-1.33Zm1.96-4.61l-.57.83h-1.29l.8-1.13v-5.94h5.69l-.49-.85h1.19l.49.85h1.53l-.49-.85h1.23l.49.85h.77v1.05h-2.93l1.15,1.99.95-1.36h1.2l-1.61,2.3,1.71,2.94h-1.19l-1.16-2-1.41,2h-1.2l2.07-2.96-1.69-2.91h-5.22v5.2Zm5.29-4.61v.91h-4.96v-.91h4.96Zm-.31,1.37v3h-4.26v-3h4.26Zm-2.65,3.64v3.36h5.45v1.05h-6.51v-4.41h1.06Zm1.64-1.48v-1.32h-2.24v1.32h2.24Zm1.86,4.02h-1.29l-1.62-2.33h1.29l1.62,2.33Zm2.03-1.39l1.99,2.83h-1.34l-1.98-2.83h1.33Z"/>
        <path d="m228.27,116.81h1.06v3.7l-1.95,2.79h-6.93v-9.68l-.25-1.37h1.09l.22,1.27v8.73h5.32l1.43-2.05v-3.39Zm-3.46-4.08h.83l1.46,2.09h-.83l-1.46-2.09Zm1.11-.84h.83l1.46,2.09h-.83l-1.46-2.09Z"/>
        <path d="m235.18,113.42h8.53v7.56l-1.58,2.25h-2.9v-1.02h2.37s1.06-1.53,1.06-1.53v-6.23h-6.95l-1.4,2v4.92h2.58l1.05-6h1.06l-1.25,7.03h-4.5v-6.25l1.92-2.75Z"/>
        <path d="m258.45,123.72h-1.47l-4.48-5.13-4.34,5.13h-1.43l5.2-6.14v-5.84h1.12v5.79l5.41,6.19Z"/>
        <path d="m265.98,116.98h-3.89v6.74h-1.08v-11.77h4.97v5.03Zm-3.89-4.01v.98h2.83v-.98h-2.83Zm2.83,2.97v-.97h-2.83v.97h2.83Zm-.9,1.78h4.96v5.34h-4.96v-5.34Zm1.05,1.02v1.09h2.86v-1.09h-2.86Zm2.86,3.31v-1.2h-2.86v1.2h2.86Zm4.06-10.1v11.77h-1.08v-6.74h-4.02v-5.03h5.1Zm-4.03,1.02v.98h2.96v-.98h-2.96Zm2.96,2.97v-.97h-2.96v.97h2.96Z"/>
        <path d="m277.84,119.08v2.98h7.47v1.05h-8.54v-4.57l5.95-4.16h-7.51v-1.05h10.6v1.05h-1.26l-6.71,4.69Zm5.34-2.66h.83l1.47,2.09h-.83l-1.47-2.09Zm1.93-.83l1.47,2.09h-.83l-1.46-2.09h.81Z"/>
        <path d="m299.78,113.65v1.04h-1.51v5.81l-1.89,2.69h-6.54v-1.02h6l1.39-1.98v-1.36l-1.12,1.6h-5.94v-4.16h6.05l1.01,1.44v-3.03h-7.98v-1.04h7.98v-1.46h1.05v1.46h1.51Zm-4.16,5.83l.84-1.2-.73-1.05h-4.58v2.25h4.47Z"/>
        <path d="m303.86,120.64c.92,0,1.67.74,1.67,1.67s-.74,1.67-1.67,1.67-1.67-.74-1.67-1.67.74-1.67,1.67-1.67Zm0,.71c-.52,0-.95.42-.95.95s.43.95.95.95.95-.43.95-.95-.42-.95-.95-.95Z"/>
        <path d="m53.04,142.53v4.03h8.42v1.06h-9.48v-5.36l2.25-3.22h.88v-2.35h1.08v2.35h4.24v1.06h-4.24v2.06h-1.08v-2.06h-.38l-1.69,2.42Zm6.39-6.07h.83l1.46,2.09h-.81l-1.47-2.09Zm1.93-.83l1.47,2.09h-.83l-1.47-2.09h.83Z"/>
        <path d="m74.14,146.72h1.58v1.02h-2.63v-6.02h-4.19l-1.06,6.02h-1.64v-11.05h1.08v8.99l.88-5h5.98v6.04Z"/>
        <path d="m89.3,139.27h-8.03v8.38h-1.05v-8.38h-1.19v-1.04h1.19v-1.54h1.05v1.54h8.03v1.04Zm-.92,5.37h1.33v.99h-1.33v.27l-1.22,1.74h-4.92v-3.89h5.1v-2.26h1.04v3.15Zm-1.04.94v-.84h-4.09v1.92h3.33l.76-1.08Zm-2.97-5.53h5.6v.95h-5.6v-.95Z"/>
        <path d="m94.69,146.58h8.71v1.05h-9.78v-4.38l1.02-1.46h1.29l-1.25,1.77v3.03Zm-.62-8.99h8.8v2.69h-1.05v-1.64h-7.75v-1.05Z"/>
        <path d="m109.04,146.57h8.42v1.06h-9.48v-5.36l2.25-3.22h.88v-2.35h1.08v2.35h4.24v1.06h-4.24v2.06h-1.08v-2.06h-.38l-1.69,2.42v4.03Z"/>
        <path d="m122.7,147.48h-1.05v-10.34h1.05v10.34Zm3.67-1.43h5.34v1.05h-5.87l-1.79-2.58h1.26l1.06,1.53Zm5.22-6.54h-7.07v-1.05h7.07v1.05Z"/>
        <path d="m144.41,142.98h1.06v2.24l-1.69,2.42h-6.71v-5.65h-1.55v-1.04h1.55v-1.83h-1.55v-1.04h1.55v-1.4h1.08v1.4h7.02v1.04h-7.02v1.83h7.02v1.04h-7.02v4.61h5.1l1.16-1.67v-1.96Z"/>
        <path d="m159.72,141.85v1.05h-2.37v.87l-2.72,3.87h-4.24v-1.01h3.7l2.21-3.15v-.57h-7.02v-1.05h7.02v-2.77h1.05v2.77h2.37Zm-1.09-4.54v1.04l-8.61,1.53v-1.05l8.61-1.51Z"/>
        <path d="m166.44,139.93h6.37v2.28l-2.38,3.4h-2.23v-.99h1.71l1.89-2.69v-1.01h-5.2l1.2,6.82h-1.05l-1.21-6.82h-1.29v-.99h1.12l-.22-1.25h1.05l.22,1.25Z"/>
        <path d="m182.11,146.58l5.7-3.98v1.33l-5.29,3.7h-3.39v-10.67h1.09v9.62h1.89Z"/>
        <path d="m196.47,138.93v1.11l-5.01-.88v-1.11l5.01.88Zm4.05-1.18h1.06v4.54l-3.73,5.34h-5.52v-1.05h4.96l3.22-4.58v-4.24Z"/>
        <path d="m209.67,141.54v1.08l-4.29-.76v-1.08l4.29.76Zm.43-3.46v1.06l-4.19-.74v-1.06l4.19.74Zm4.41,3.91v-3.03h1.06v3.32l-3.74,5.35h-5.25v-1.05h4.71l3.22-4.59Zm-.6-5.73h.83l1.46,2.09h-.83l-1.46-2.09Zm1.93-.83l1.46,2.09h-.83l-1.46-2.09h.83Z"/>
        <path d="m221.66,141.76v.74l1.86,2.86h-1.19l-.67-1.04v3.89h-1.04v-3.75l-2.03,2.6v-1.65l2.03-2.61v-1.05h-2.03v-1.01h2.03v-4.51h1.04v4.51h1.74v1.01h-1.74Zm-1.11-1.61h-1.04l-.91-3.03h1.04l.91,3.03Zm3.11-3.03l-.91,3.03h-1.06l.92-3.03h1.05Zm3.81,3.33h2.96v.95h-6.95v-.95h2.97v-.7h-2.31v-.95h2.31v-.7h-2.56v-.95h2.56v-.91h1.02v.91h2.55v.95h-2.55v.7h2.3v.95h-2.3v.7Zm-3.21,7.76v-6.36h5.39v6.36h-1.01v-1.81h-3.4v1.81h-.98Zm4.38-5.37h-3.4v.81h3.4v-.81Zm-3.4,2.58h3.4v-.78h-3.4v.78Z"/>
        <path d="m237.55,137.91l-2.26,3.45v.81l1.56,1.9v1.57l-1.56-1.9v4.48h-1.04v-5.28l-1.67,2.56v-1.89l3.04-4.66h-3.04v-1.04h1.65v-1.74h1.06v1.74h2.24Zm6.46-.15v7.37h-2.65v3.1h-1.06v-3.1h-2.63v-7.37h2.63v-1.51h1.06v1.51h2.65Zm-3.71,1.05h-1.57v2.06h1.57v-2.06Zm-1.57,5.28h1.57v-2.19h-1.57v2.19Zm4.22-5.28h-1.58v2.06h1.58v-2.06Zm-1.58,5.28h1.58v-2.19h-1.58v2.19Z"/>
        <path d="m249.04,146.57h8.42v1.06h-9.48v-5.36l2.25-3.22h.88v-2.35h1.08v2.35h4.24v1.06h-4.24v2.06h-1.08v-2.06h-.38l-1.69,2.42v4.03Z"/>
        <path d="m262.35,137.65h1.08v8.96l-.8,1.13h-1.29l1.01-1.44v-8.66Zm6.44-.83h1.12l1.92,10.93h-1.11l-1.93-10.93Z"/>
        <path d="m280.47,138.93v1.11l-5.01-.88v-1.11l5.01.88Zm4.05-1.18h1.06v4.54l-3.73,5.34h-5.52v-1.05h4.96l3.22-4.58v-4.24Z"/>
        <path d="m290.52,137.36h8.07v6.3l-2.79,3.96h-4.62v-1.02h4.06l2.26-3.22v-4.97h-5.91v3.7s-1.25,1.81-1.25,1.81h-1.32l1.5-2.13v-4.43Zm7.48-1.29h.83l1.46,2.09h-.83l-1.46-2.09Zm1.16-.6h.83l1.47,2.09h-.83l-1.47-2.09Z"/>
        <path d="m305.84,144.14h-1.08v-7.13h1.08v7.13Zm5.39-7.4h1.09v7.34l-2.56,3.66h-3.99v-1.04h3.43l2.03-2.91v-7.05Z"/>
        <path d="m327.95,142.84h-10.88v-1.06h10.88v1.06Z"/>
        <path d="m333.66,141.76v.74l1.86,2.86h-1.19l-.67-1.04v3.89h-1.04v-3.75l-2.03,2.6v-1.65l2.03-2.61v-1.05h-2.03v-1.01h2.03v-4.51h1.04v4.51h1.74v1.01h-1.74Zm-1.11-1.61h-1.04l-.91-3.03h1.04l.91,3.03Zm3.11-3.03l-.91,3.03h-1.06l.92-3.03h1.05Zm3.81,3.33h2.96v.95h-6.95v-.95h2.97v-.7h-2.31v-.95h2.31v-.7h-2.56v-.95h2.56v-.91h1.02v.91h2.55v.95h-2.55v.7h2.3v.95h-2.3v.7Zm-3.21,7.76v-6.36h5.39v6.36h-1.01v-1.81h-3.4v1.81h-.98Zm4.38-5.37h-3.4v.81h3.4v-.81Zm-3.4,2.58h3.4v-.78h-3.4v.78Z"/>
        <path d="m55.55,162.41l-2.26,3.45v.81l1.56,1.9v1.57l-1.56-1.9v4.48h-1.04v-5.28l-1.67,2.56v-1.89l3.04-4.66h-3.04v-1.04h1.65v-1.74h1.06v1.74h2.24Zm6.46-.15v7.37h-2.65v3.1h-1.06v-3.1h-2.63v-7.37h2.63v-1.51h1.06v1.51h2.65Zm-3.71,1.05h-1.57v2.06h1.57v-2.06Zm-1.57,5.28h1.57v-2.19h-1.57v2.19Zm4.22-5.28h-1.58v2.06h1.58v-2.06Zm-1.58,5.28h1.58v-2.19h-1.58v2.19Z"/>
        <path d="m75.46,163.59h-7.37v1.61h5.62v1.92h1.37v.99h-1.37v1.5h-1.08v-1.5h-3.89l-1.6,2.3v.7h8.28v1.02h-9.31v-2.02l2.1-3h4.43v-.94h-5.6v-2.59h-1.47v-1.04h1.47v-1.36h1.06v1.36h7.37v1.04Z"/>
        <path d="m88.41,167.48h1.06v2.24l-1.69,2.42h-6.71v-5.65h-1.55v-1.04h1.55v-1.83h-1.55v-1.04h1.55v-1.4h1.08v1.4h7.02v1.04h-7.02v1.83h7.02v1.04h-7.02v4.61h5.1l1.16-1.67v-1.96Z"/>
        <path d="m103.78,163.92h-7.9v2.45h7.69v3.1l-1.88,2.69h-6.54l-1.48-2.13h1.26l.77,1.09h5.45l1.36-1.93v-1.75h-7.69v-3.52h-1.61v-1.05h1.61v-1.67h1.06v1.67h7.9v1.05Z"/>
        <path d="m109.4,171.8v1.26l-3.21-2.24v-1.26l3.21,2.24Z"/>
        <path d="m126.74,162.07h-.99v10.65h-1.06v-2.51l-4.09,1.19v-1.08l.98-.28v-7.97h-1.01v-1.05h6.18v1.05Zm-2.06,1.69v-1.69h-2.04v1.69h2.04Zm0,2.68v-1.68h-2.04v1.68h2.04Zm-2.04,3.28l2.04-.59v-1.69h-2.04v2.28Zm9.72-6.44l-2.59,4.72,2.59,4.72h-1.19l-2.07-3.75-2.06,3.75h-1.22l2.62-4.78-2.02-3.67h1.18l1.48,2.69,1.95-3.53h-4.78v-1.05h6.11v.9Z"/>
        <path d="m137.42,167.87h1.39v1.04h-2.47v-7.45h1.08v6.42Zm5.06-6.23h2.13v7.35l-2.27,3.25h-4.99v-1.02h4.43l1.77-2.52v-6.06h-1.06v-.99Z"/>
        <path d="m148.57,172.16l.9-3.75h1.02l-.9,3.75h-1.02Zm4.05-4.83h-.99v5.39h-1.05v-5.39h-1.99v-.99h.83l.91-1.44-1.74-1.3,1.78-2.84h1.2l-1.61,2.59.91.67,1.43-2.28h1.22l-2.9,4.61h1.74l-.35-1.3h1.05l.78,2.91h-1.05l-.17-.62Zm.15,1.5l1.15,2.34h-1.11l-1.15-2.34h1.11Zm6.56,2.72h1.09v1.04h-7.14v-1.04h1.22v-10.46h4.83v10.46Zm-1.05-9.43h-2.75v2.17h2.75v-2.17Zm0,5.38v-2.19h-2.75v2.19h2.75Zm-2.75,1.01v3.04h2.75v-3.04h-2.75Z"/>
        <path d="m172.14,171.22h1.58v1.02h-2.63v-6.02h-4.19l-1.06,6.02h-1.64v-11.05h1.08v8.99l.88-5h5.98v6.04Z"/>
        <path d="m179.84,168.08v2.98h7.47v1.05h-8.54v-4.57l5.95-4.16h-7.51v-1.05h10.6v1.05h-1.26l-6.71,4.69Zm5.34-2.66h.83l1.47,2.09h-.83l-1.47-2.09Zm1.93-.83l1.47,2.09h-.83l-1.46-2.09h.81Z"/>
        <path d="m195.07,171.04l.38-2.09h1.06l-.55,3.12h-4.41v-9.93l3.38-.6v1.05l-2.31.41v8.04h2.45Zm3.82-8.39l2.65.46v8.36h-1.06v-7.49l-1.58-.28v-1.05Z"/>
        <path d="m215.51,163.62h-2.54v1.32h2.54v1.04h-2.54v2.47h-4.97l-1.11,1.58v1.08h6.49l.64-.92h1.29l-1.37,1.96h-8.1v-2.37l1.65-2.35h4.41v-1.44h-6.43v-1.04h6.43v-1.32h-6.43v-1.04h6.43v-1.39h1.06v1.39h2.54v1.04Z"/>
        <path d="m229.53,163.52h-2.7v1.79h2.7v.99h-2.7v2.66h2.59v.99h-2.59l-1.53,2.17h-5.58v-4.05h6.07v-1.76h-6.3v-1.01h6.3v-1.78h-6.3v-1.01h6.3v-1.33h1.04v1.33h2.7v.99Zm-3.74,6.15v-.59h-5.01v2.07h3.98l1.04-1.48Z"/>
        <path d="m243.78,162.65v1.04h-1.51v5.81l-1.89,2.69h-6.54v-1.02h6l1.39-1.98v-1.36l-1.12,1.6h-5.94v-4.16h6.05l1.01,1.44v-3.03h-7.98v-1.04h7.98v-1.46h1.05v1.46h1.51Zm-4.16,5.83l.84-1.2-.73-1.05h-4.58v2.25h4.47Z"/>
        <path d="m247.86,169.64c.92,0,1.67.74,1.67,1.67s-.74,1.67-1.67,1.67-1.67-.74-1.67-1.67.74-1.67,1.67-1.67Zm0,.71c-.52,0-.95.42-.95.95s.43.95.95.95.95-.43.95-.95-.42-.95-.95-.95Z"/>
        <path d="m62.45,197.22h-1.47l-4.48-5.13-4.34,5.13h-1.43l5.2-6.14v-5.84h1.12v5.79l5.41,6.19Z"/>
        <path d="m67.04,195.57h8.42v1.06h-9.48v-5.36l2.25-3.22h.88v-2.35h1.08v2.35h4.24v1.06h-4.24v2.06h-1.08v-2.06h-.38l-1.69,2.42v4.03Z"/>
        <path d="m81.18,186.92h8.53v7.56l-1.58,2.25h-2.9v-1.02h2.37s1.06-1.53,1.06-1.53v-6.23h-6.95l-1.4,2v4.92h2.58l1.05-6h1.06l-1.25,7.03h-4.5v-6.25l1.92-2.75Z"/>
        <path d="m95.12,191.73v-.67h-2.54v-.84h2.54v-.36h-2.03v-2.93h2.03v-.34h-2.47v-.84h2.47v-.57h.95v.57h2.45v.84h-2.45v.34h2.02v2.93h-2.02v.36h2.52v.84h-2.52v.67h-.95Zm-2.47,5.32l3.03-1.74h1.86l-3.01,1.74h-1.88Zm9.62-2.07h-3.24v2.24h-1.09v-2.24h-4.31v-1.01h2.49l.34-.22-1.95-.94,2.14-1.43h1.86l-2,1.34.85.41,2.19-1.46h1.86l-3.43,2.3h3.42l-.66-.77h1.36l1.85,2.14h-1.36l-.32-.36Zm-7.16-7.3h-1.08v.35h1.08v-.35Zm-1.08,1.41h1.08v-.35h-1.08v.35Zm3.1-1.41h-1.06v.35h1.06v-.35Zm-1.06,1.41h1.06v-.35h-1.06v.35Zm3.43-1.22h-1.16l1.57-2.52h3.19v1.58h1.32v.83h-2.35v-1.65h-1.46l-1.11,1.76Zm-.74,3.84v-1.05l1.3-.62-1.12-.84h1.39l.59.43,1.4-.64h-3.95v-.87h5.9v1.01l-2.35,1.09,2.59,1.95h-1.62l-1.96-1.47-2.16,1.01Zm.62,3.6h1.92l3.03,1.74h-1.92l-3.03-1.74Z"/>
        <path d="m109.11,185.75v2.35h6.09v5.84l-1.88,2.69h-3v-1.01h2.44l1.39-1.99v-4.5h-5.04v5.66l-1.36,1.95h-1.26l1.57-2.24v-5.36h-1.57v-1.04h1.57v-2.35h1.05Zm6.21,1.06h1.26l1.05,1.5v7.12h-1.04v-6.79l-1.27-1.82Zm.78-1.6h.83l1.46,2.09h-.83l-1.46-2.09Zm1.92-.84l1.46,2.09h-.83l-1.46-2.09h.83Z"/>
        <path d="m123.42,192.37h1.39v1.04h-2.47v-7.45h1.08v6.42Zm5.06-6.23h2.13v7.35l-2.27,3.25h-4.99v-1.02h4.43l1.77-2.52v-6.06h-1.06v-.99Z"/>
        <path d="m145.46,188.09h-7.37v1.61h5.62v1.92h1.37v.99h-1.37v1.5h-1.08v-1.5h-3.89l-1.6,2.3v.7h8.28v1.02h-9.31v-2.02l2.1-3h4.43v-.94h-5.6v-2.59h-1.47v-1.04h1.47v-1.36h1.06v1.36h7.37v1.04Z"/>
        <path d="m160.42,195.88v1.39l-5.91-4.54-5.92,4.57v-1.37l5.36-4.15v-2.62h-5.15v-1.08h5.15v-2.9h1.09v2.9h5.17v1.08h-5.17v2.59l5.38,4.13Z"/>
        <path d="m174.42,192.64v.97h-1.09v1.65h-4.34v1.95h-2.42v-.95h1.39v-.99h-4.29v-.97h4.29v-.69h-5.36v-.97h5.36v-.67h-4.29v-.97h4.29v-.74h-4.02v-2.75h4.02v-.63h-5.22v-.98h5.22v-.73h1.04v.73h5.29v.98h-5.29v.63h4.09v2.75h-4.09v.74h4.34v1.64h1.09Zm-9.47-3.31h3v-.9h-3v.9Zm7.07-.9h-3.04v.9h3.04v-.9Zm-3.04,3.53v.67h3.31v-.67h-3.31Zm3.31,2.33v-.69h-3.31v.69h3.31Z"/>
        <path d="m178.7,196.48h-1.05v-10.34h1.05v10.34Zm3.67-1.43h5.34v1.05h-5.87l-1.79-2.58h1.26l1.06,1.53Zm5.22-6.54h-7.07v-1.05h7.07v1.05Z"/>
        <path d="m200.27,190.31h1.06v3.7l-1.95,2.79h-6.93v-9.68l-.25-1.37h1.09l.22,1.27v8.73h5.32l1.43-2.05v-3.39Z"/>
        <path d="m214.55,187.89l-6.71,4.69v2.98h7.47v1.05h-8.54v-4.57l5.95-4.16h-7.51v-1.05h10.6v1.05h-1.26Z"/>
        <path d="m223.07,195.54l.38-2.09h1.06l-.55,3.12h-4.41v-9.93l3.38-.6v1.05l-2.31.41v8.04h2.45Zm3.82-8.39l2.65.46v8.36h-1.06v-7.49l-1.58-.28v-1.05Z"/>
        <path d="m237.5,190.27h5.85v3.47l-2.03,2.89h-7.1l-.56-3.04h3.7l1.44,2.06h1.98l1.54-2.2v-2.19h-8.38v-.99h1.75l3.94-2.75h-5.48v-.99h7.35v.94l-4.01,2.8Zm-2.41,5.38h2.51l-.77-1.11h-1.95l.21,1.11Z"/>
        <path d="m249.18,186.92h8.53v7.56l-1.58,2.25h-2.9v-1.02h2.37s1.06-1.53,1.06-1.53v-6.23h-6.95l-1.4,2v4.92h2.58l1.05-6h1.06l-1.25,7.03h-4.5v-6.25l1.92-2.75Z"/>
        <path d="m263.84,192.58v2.98h7.47v1.05h-8.54v-4.57l5.95-4.16h-7.51v-1.05h10.6v1.05h-1.26l-6.71,4.69Zm5.34-2.66h.83l1.47,2.09h-.83l-1.47-2.09Zm1.93-.83l1.47,2.09h-.83l-1.46-2.09h.81Z"/>
        <path d="m277.4,196.3v1.26l-3.21-2.24v-1.26l3.21,2.24Z"/>
        <path d="m293.01,193.52h-1.19l-.53-.77v4.47h-1.02v-4.19l-1.68,2.73v-1.92l1.68-2.72v-1.54h-1.68v-.99h1.68v-1.81l-1.39.25v-1.04l3.85-.67v1.02l-1.44.27v1.98h1.33v.99h-1.33v1.47l1.72,2.47Zm4.08-4.44h3.33v.91h-7.69v-.91h3.35v-.6h-2.52v-.91h2.52v-.6h-2.82v-.91h2.82v-.81h1.01v.81h2.79v.91h-2.79v.6h2.49v.91h-2.49v.6Zm-4.23,8.14l1.25-1.46h1.36l-1.23,1.46h-1.37Zm6.54-6.89v5.11h-5.66v-5.11h5.66Zm-1.02.92h-3.61v.41h3.61v-.41Zm0,1.33h-3.61v.49h3.61v-.49Zm-3.61,1.92h3.61v-.52h-3.61v.52Zm2.96,1.27h1.37l1.22,1.44h-1.37l-1.22-1.44Z"/>
        <path d="m306.37,192.67h-1.05l-.2-.35v4.9h-1.01v-4.37l-1.53,2.49v-1.91l1.53-2.49v-2.28h-1.56v-1.01h1.56v-2.41h1.01v2.41h1.12v1.01h-1.12v1.83l1.25,2.17Zm-.22,3.38h8.28v.99h-8.28v-.99Zm2.2-6.95l.73-2.52h-2.84v-.99h8.1v.99h-4.19l-.46,1.54h1.13v7.58h-1.88v-.91h.88v-5.69h-1.47Zm.7.18v5.28h-2.55v-5.28h2.55Zm-.94,4.41v-3.54h-.69v3.54h.69Zm2.9-5.52h3.36l-1.25,3.78,1.19,3.26h-1.06l-.71-1.96-.64,1.96h-.97l1.11-3.33-.81-2.2h.99l.31.84.46-1.4h-1.98v-.95Z"/>
        <path d="m320.06,185.17l-.8,1.71h2.24v9.08h-4.5v-9.08h1.11l.8-1.71h1.15Zm.43,5.25v-2.56h-2.49v2.56h2.49Zm-2.49,4.57h2.49v-3.61h-2.49v3.61Zm5.94-8.03h4.36l-.9,10.25h-1.09l.8-9.22h-3.64l-1.72,3.68v-2.59l1.79-3.85h1.2l-.8,1.72Zm-1.19,3.05h1.19l1.81,3.14h-1.19l-1.81-3.14Z"/>
        <path d="m332.7,196.48h-1.05v-10.34h1.05v10.34Zm3.67-1.43h5.34v1.05h-5.87l-1.79-2.58h1.26l1.06,1.53Zm5.22-6.54h-7.07v-1.05h7.07v1.05Z"/>
        <path d="m61.3,211.57v9.2h-9.6v-1.08h8.5v-7.06h-8.5v-1.06h9.6Z"/>
        <path d="m65.58,218.44l9.83,1.74v1.06l-9.83-1.74v-1.07Zm9.43-6.18v1.06l-9.02-1.58v-1.06l9.02,1.58Zm-8.52,3.04v-1.02l5.42.95,2.59,1.82v1.21l-2.94-2.06-5.07-.9Z"/>
        <path d="m85.86,219.93h2.93v.99h-8.56v-.99h4.41l2.38-3.4v-2.28h-6.09v-.99h7.12v3.57l-2.19,3.11Z"/>
        <path d="m103.72,220.67h-10.44v-1.08h10.44v1.08Zm-.76-7.42h-8.94v-1.08h8.94v1.08Z"/>
        <path d="m117.68,212.1v1.04h-1.39v4.12l-2.73,3.88h-4.13v-1.02h3.59l2.21-3.15v-3.82h-5.81v3.15l-.8,1.13h-1.3l1.02-1.47v-5.76h1.08v1.91h8.26Z"/>
        <path d="m131.95,216.34h-10.88v-1.06h10.88v1.06Z"/>
        <path d="m139.67,215.04v1.08l-4.29-.76v-1.08l4.29.76Zm.43-3.46v1.06l-4.19-.74v-1.06l4.19.74Zm4.41-.32h1.06v4.52l-3.74,5.35h-5.25v-1.05h4.71l3.22-4.59v-4.23Z"/>
        <path d="m150.54,213.13h7.94v5.53l-1.54,2.19h-6.4v-1h5.9l1.02-1.47v-1.02h-6.46v-.98h6.46v-2.27h-6.92v-.98Z"/>
        <path d="m168.47,212.43v1.11l-5.01-.88v-1.11l5.01.88Zm4.05-1.18h1.06v4.54l-3.73,5.34h-5.52v-1.05h4.96l3.22-4.58v-4.24Z"/>
        <path d="m179.04,220.07h8.42v1.06h-9.48v-5.36l2.25-3.22h.88v-2.35h1.08v2.35h4.24v1.06h-4.24v2.06h-1.08v-2.06h-.38l-1.69,2.42v4.03Z"/>
        <path d="m195.5,214.77h5.85v3.47l-2.03,2.88h-7.1l-.56-3.04h3.7l1.44,2.06h1.98l1.54-2.2v-2.18h-8.38v-1h1.75l3.94-2.75h-5.48v-.99h7.35v.94l-4.01,2.8Zm-2.41,5.38h2.51l-.77-1.11h-1.95l.21,1.11Z"/>
        <path d="m215.54,213.5h-2.94v4.06h2.94v1.05h-2.94v.71l-1.27,1.82h-5.6v-4.59h5.83v-6.36h1.05v2.25h2.94v1.05Zm-3.94,5.45v-1.37h-4.83v2.56h3.99l.84-1.19Z"/>
        <path d="m221.42,213.57h7.83v4.58l-2.21,3.15h-5.94v-1.05h5.42l1.69-2.42v-3.22h-6.4l-2.12,1.49v-1.32l1.72-1.2Zm3.08-3.17l3.52.62v1.06l-3.56-.63-3.42.6v-1.05l3.46-.6Z"/>
        <path d="m234.7,220.98h-1.05v-10.34h1.05v10.34Zm3.67-1.43h5.34v1.05h-5.87l-1.79-2.58h1.26l1.06,1.53Zm5.22-6.54h-7.07v-1.05h7.07v1.05Z"/>
        <path d="m246.41,216.9l1.96-2.16-1.54-.52.6-2.17h-.84v-1.02h1.12l.35-1.29h1.04l-.36,1.29h3.4v1.05l-1.99,2.19,2,.69v1.06l-2.75-.92-1.67,1.81h-1.33Zm6.49.25h4.75v4.43h-2.97v-.98h1.91v-2.41h-4.62l-3.22,3.53h-1.42l3.21-3.53h-3.08v-1.04h4.03l.6-.67h1.43l-.62.67Zm-3.78-3.22l1.71-1.88h-2.35l-.42,1.51,1.06.36Zm7.76-2.66h-4.51v-.99h5.79v1.19l-2.2,2.42,2.41,2.7h-1.4l-1.79-2-1.43,1.55h-1.37l2.1-2.3-1.89-2.12h1.36l1.25,1.4,1.69-1.86Z"/>
        <path d="m271.93,213.46v5.24l-1.79,2.55h-4.76v-.98h4.2l1.34-1.92v-3.88h-2.26l-4.55,6.5h-2.77v-7.05l2-.36v-2.69h.99v2.59h3.66l2.09-3h1.26l-2.09,3h2.68Zm-8.32,6.53l3.85-5.52h-3.12v2.96h-.99v-2.83l-.98.17v5.22h1.25Z"/>
        <path d="m284.55,212.39l-6.71,4.69v2.98h7.47v1.05h-8.54v-4.57l5.95-4.16h-7.51v-1.05h10.6v1.05h-1.26Z"/>
        <path d="m293.07,220.04l.38-2.09h1.06l-.55,3.12h-4.41v-9.93l3.38-.6v1.05l-2.31.41v8.04h2.45Zm3.82-8.39l2.65.46v8.36h-1.06v-7.49l-1.58-.28v-1.05Z"/>
        <path d="m313.53,212.52h-2.7v1.79h2.7v.99h-2.7v2.66h2.59v.99h-2.59l-1.53,2.17h-5.58v-4.05h6.07v-1.76h-6.3v-1.01h6.3v-1.78h-6.3v-1.01h6.3v-1.33h1.04v1.33h2.7v.99Zm-3.74,6.15v-.59h-5.01v2.07h3.98l1.04-1.48Z"/>
        <path d="m327.78,211.65v1.04h-1.51v5.81l-1.89,2.69h-6.54v-1.02h6l1.39-1.98v-1.36l-1.12,1.6h-5.94v-4.16h6.05l1.01,1.44v-3.03h-7.98v-1.04h7.98v-1.46h1.05v1.46h1.51Zm-4.16,5.83l.84-1.21-.73-1.05h-4.58v2.26h4.47Z"/>
        <path d="m331.86,218.64c.92,0,1.67.74,1.67,1.67s-.74,1.67-1.67,1.67-1.67-.74-1.67-1.67.74-1.67,1.67-1.67Zm0,.71c-.52,0-.95.42-.95.95s.43.95.95.95.95-.43.95-.95-.42-.95-.95-.95Z"/>
      </g>
    </g>
  </g>
</svg>