<?xml version="1.0" encoding="UTF-8"?>
<svg id="_レイヤー_2" data-name="レイヤー 2" xmlns="http://www.w3.org/2000/svg" viewBox="0 0 288.36 284.17">
  <defs>
    <style>
      .cls-1 {
        fill: #fff;
      }

      .cls-2 {
        fill: #ff921e;
      }

      .cls-3 {
        fill: #935adc;
      }

      .cls-4 {
        fill: #b3b3b3;
      }

      .cls-5 {
        fill: #b1b1af;
      }
    </style>
  </defs>
  <g id="about">
    <g id="item">
      <path class="cls-3" d="m194.71,66.35c0,4.67-3.79,8.46-8.46,8.46v22.45h-61.54v-22.45c4.68,0,8.46-3.79,8.46-8.46s-3.79-8.46-8.46-8.46v-22.16h22.3c0-4.68,3.79-8.46,8.46-8.46s8.46,3.79,8.46,8.46h22.3v22.16c4.67,0,8.46,3.79,8.46,8.46Z"/>
      <path class="cls-5" d="m288.36,66.35c0,4.67-3.79,8.46-8.46,8.46v22.45h-61.54v-22.45c4.68,0,8.46-3.79,8.46-8.46s-3.79-8.46-8.46-8.46v-22.16h22.3c0-4.68,3.79-8.46,8.46-8.46s8.46,3.79,8.46,8.46h22.3v22.16c4.67,0,8.46,3.79,8.46,8.46Z"/>
      <path class="cls-2" d="m102.49,66.35c0,4.67-3.79,8.46-8.46,8.46v22.45h-61.54v-22.45c4.68,0,8.46-3.79,8.46-8.46s-3.79-8.46-8.46-8.46v-22.16h22.3c0-4.68,3.79-8.46,8.46-8.46s8.46,3.79,8.46,8.46h22.3v22.16c4.67,0,8.46,3.79,8.46,8.46Z"/>
      <polygon class="cls-4" points=".9 284.17 0 281.93 150.65 221.51 150.65 139.2 153.07 139.2 153.07 223.14 152.31 223.45 .9 284.17"/>
      <g>
        <path class="cls-1" d="m38.33,0h2.32v8.16c0,.63-.23,1.18-.69,1.65-.46.46-1,.69-1.64.69h-2.34c-.63,0-1.18-.23-1.64-.69-.46-.46-.69-1.01-.69-1.65V0h2.34v8.16c0,.32.11.59.34.83.23.23.5.35.82.35s.6-.12.83-.35c.23-.23.34-.51.34-.83V0Z"/>
        <path class="cls-1" d="m48.83,4.66h-1.16c-.1-.77-.47-1.16-1.11-1.16-.41,0-.72.08-.92.25-.21.16-.31.4-.31.72,0,.34.56.81,1.69,1.41.92.5,1.46.91,1.6,1.23.14.33.21.68.21,1.05,0,.64-.23,1.19-.69,1.65-.46.46-1.01.69-1.65.69h-1.16c-1.56,0-2.34-.78-2.34-2.34h1.18c.09.78.46,1.18,1.09,1.18.42,0,.73-.08.94-.25.21-.16.31-.41.31-.73s-.56-.79-1.69-1.4c-.92-.49-1.46-.91-1.6-1.23s-.22-.68-.22-1.05c0-.64.23-1.19.69-1.65.46-.46,1.01-.69,1.64-.69h1.16c1.46,0,2.24.77,2.34,2.32Z"/>
        <path class="cls-1" d="m58.15,7h-4.66v1.16c0,.32.11.59.34.83.23.23.5.35.82.35h1.18c.77,0,1.16-.39,1.16-1.18h1.16c-.18,1.56-.95,2.34-2.32,2.34h-2.34c-.63,0-1.18-.23-1.64-.69-.46-.46-.69-1.01-.69-1.65v-3.5c0-.63.23-1.18.69-1.64.46-.46,1.01-.69,1.64-.69h2.34c.63,0,1.18.23,1.64.69.46.46.69,1,.69,1.64v2.34Zm-4.66-1.16h2.34v-1.18c0-.32-.11-.59-.34-.82-.23-.23-.51-.34-.83-.34s-.59.11-.82.34c-.23.23-.34.5-.34.82v1.18Z"/>
        <path class="cls-1" d="m67.49,10.5h-2.32v-1.16c-.09.77-.49,1.16-1.18,1.16h-1.16c-.63,0-1.18-.23-1.64-.69-.46-.46-.69-1.01-.69-1.65v-3.5c0-.63.23-1.18.69-1.64.46-.46,1.01-.69,1.64-.69h2.34V0h2.32v10.5Zm-2.32-7h-1.18c-.32,0-.59.11-.82.34-.23.23-.34.5-.34.82v3.5c0,.32.11.59.34.83.23.23.5.35.82.35s.6-.12.83-.35c.23-.23.34-.51.34-.83V3.5Z"/>
        <path class="cls-1" d="m75.66,4.66h-1.16c-.09-.77-.49-1.16-1.18-1.16-.32,0-.59.11-.82.34-.23.23-.34.5-.34.82v3.5c0,.32.11.59.34.83.23.23.5.35.82.35.69,0,1.08-.39,1.18-1.18h1.16c-.09,1.56-.87,2.34-2.34,2.34h-1.16c-.63,0-1.18-.23-1.64-.69-.46-.46-.69-1.01-.69-1.65v-3.5c0-.63.23-1.18.69-1.64.46-.46,1.01-.69,1.64-.69h1.16c1.47,0,2.25.77,2.34,2.32Z"/>
        <path class="cls-1" d="m80.33,2.34h2.34c.63,0,1.18.23,1.64.69.46.46.69,1,.69,1.64v3.5c0,.63-.23,1.18-.69,1.65-.46.46-1,.69-1.64.69h-2.34c-.63,0-1.18-.23-1.64-.69-.46-.46-.69-1.01-.69-1.65v-3.5c0-.63.23-1.18.69-1.64.46-.46,1.01-.69,1.64-.69Zm0,2.32v3.5c0,.32.11.59.34.83.23.23.5.35.82.35s.6-.12.83-.35c.23-.23.34-.51.34-.83v-3.5c0-.32-.11-.59-.34-.82-.23-.23-.51-.34-.83-.34s-.59.11-.82.34c-.23.23-.34.5-.34.82Z"/>
        <path class="cls-1" d="m87.33,10.5V0h2.34v10.5h-2.34Z"/>
        <path class="cls-1" d="m94.33,2.34h2.34c.63,0,1.18.23,1.64.69.46.46.69,1,.69,1.64v3.5c0,.63-.23,1.18-.69,1.65-.46.46-1,.69-1.64.69h-2.34c-.63,0-1.18-.23-1.64-.69-.46-.46-.69-1.01-.69-1.65v-3.5c0-.63.23-1.18.69-1.64.46-.46,1.01-.69,1.64-.69Zm0,2.32v3.5c0,.32.11.59.34.83.23.23.5.35.82.35s.6-.12.83-.35c.23-.23.34-.51.34-.83v-3.5c0-.32-.11-.59-.34-.82-.23-.23-.51-.34-.83-.34s-.59.11-.82.34c-.23.23-.34.5-.34.82Z"/>
        <path class="cls-1" d="m103.66,10.5h-2.34V2.34h2.34v2.32c.09-.77.33-1.36.72-1.74.39-.39.93-.58,1.62-.58h1.16v2.32h-2.34c-.32,0-.59.11-.82.34-.23.23-.34.51-.34.83v4.66Z"/>
      </g>
    </g>
  </g>
</svg>