<?xml version="1.0" encoding="UTF-8"?>
<svg id="_レイヤー_2" data-name="レイヤー 2" xmlns="http://www.w3.org/2000/svg" xmlns:xlink="http://www.w3.org/1999/xlink" viewBox="0 0 585.13 274.25">
  <defs>
    <style>
      .cls-1, .cls-2 {
        fill: none;
      }

      .cls-3 {
        filter: url(#outer-glow-4);
      }

      .cls-3, .cls-4, .cls-5, .cls-6, .cls-7, .cls-8, .cls-9 {
        fill: #13ffff;
      }

      .cls-4 {
        filter: url(#outer-glow-3);
      }

      .cls-5 {
        filter: url(#outer-glow-1);
      }

      .cls-6 {
        filter: url(#outer-glow-7);
      }

      .cls-7 {
        filter: url(#outer-glow-6);
      }

      .cls-8 {
        filter: url(#outer-glow-5);
      }

      .cls-9 {
        filter: url(#outer-glow-2);
      }

      .cls-10 {
        fill: #ff921e;
        filter: url(#outer-glow-8);
      }

      .cls-11 {
        fill: #fff;
      }

      .cls-12 {
        fill: #333;
      }

      .cls-2 {
        stroke: #fff;
        stroke-width: 2.4px;
      }

      .cls-13 {
        fill: url(#_6_lpi_20_2);
        opacity: .59;
      }
    </style>
    <pattern id="_6_lpi_20_2" data-name="6 lpi 20% 2" x="0" y="0" width="72" height="72" patternTransform="translate(-3158.13 -17176.27) rotate(-121.93) scale(.97)" patternUnits="userSpaceOnUse" viewBox="0 0 72 72">
      <g>
        <rect class="cls-1" width="72" height="72"/>
        <g>
          <line class="cls-2" x1="71.75" y1="66" x2="144.25" y2="66"/>
          <line class="cls-2" x1="71.75" y1="42" x2="144.25" y2="42"/>
          <line class="cls-2" x1="71.75" y1="18" x2="144.25" y2="18"/>
          <line class="cls-2" x1="71.75" y1="54" x2="144.25" y2="54"/>
          <line class="cls-2" x1="71.75" y1="30" x2="144.25" y2="30"/>
          <line class="cls-2" x1="71.75" y1="6" x2="144.25" y2="6"/>
        </g>
        <g>
          <line class="cls-2" x1="-.25" y1="66" x2="72.25" y2="66"/>
          <line class="cls-2" x1="-.25" y1="42" x2="72.25" y2="42"/>
          <line class="cls-2" x1="-.25" y1="18" x2="72.25" y2="18"/>
          <line class="cls-2" x1="-.25" y1="54" x2="72.25" y2="54"/>
          <line class="cls-2" x1="-.25" y1="30" x2="72.25" y2="30"/>
          <line class="cls-2" x1="-.25" y1="6" x2="72.25" y2="6"/>
        </g>
        <g>
          <line class="cls-2" x1="-72.25" y1="66" x2=".25" y2="66"/>
          <line class="cls-2" x1="-72.25" y1="42" x2=".25" y2="42"/>
          <line class="cls-2" x1="-72.25" y1="18" x2=".25" y2="18"/>
          <line class="cls-2" x1="-72.25" y1="54" x2=".25" y2="54"/>
          <line class="cls-2" x1="-72.25" y1="30" x2=".25" y2="30"/>
          <line class="cls-2" x1="-72.25" y1="6" x2=".25" y2="6"/>
        </g>
      </g>
    </pattern>
    <filter id="outer-glow-1" filterUnits="userSpaceOnUse">
      <feOffset dx="0" dy="0"/>
      <feGaussianBlur result="blur" stdDeviation="3"/>
      <feFlood flood-color="#13ffff" flood-opacity=".6"/>
      <feComposite in2="blur" operator="in"/>
      <feComposite in="SourceGraphic"/>
    </filter>
    <filter id="outer-glow-2" filterUnits="userSpaceOnUse">
      <feOffset dx="0" dy="0"/>
      <feGaussianBlur result="blur-2" stdDeviation="3"/>
      <feFlood flood-color="#13ffff" flood-opacity=".6"/>
      <feComposite in2="blur-2" operator="in"/>
      <feComposite in="SourceGraphic"/>
    </filter>
    <filter id="outer-glow-3" filterUnits="userSpaceOnUse">
      <feOffset dx="0" dy="0"/>
      <feGaussianBlur result="blur-3" stdDeviation="3"/>
      <feFlood flood-color="#13ffff" flood-opacity=".6"/>
      <feComposite in2="blur-3" operator="in"/>
      <feComposite in="SourceGraphic"/>
    </filter>
    <filter id="outer-glow-4" filterUnits="userSpaceOnUse">
      <feOffset dx="0" dy="0"/>
      <feGaussianBlur result="blur-4" stdDeviation="3"/>
      <feFlood flood-color="#13ffff" flood-opacity=".6"/>
      <feComposite in2="blur-4" operator="in"/>
      <feComposite in="SourceGraphic"/>
    </filter>
    <filter id="outer-glow-5" filterUnits="userSpaceOnUse">
      <feOffset dx="0" dy="0"/>
      <feGaussianBlur result="blur-5" stdDeviation="3"/>
      <feFlood flood-color="#13ffff" flood-opacity=".6"/>
      <feComposite in2="blur-5" operator="in"/>
      <feComposite in="SourceGraphic"/>
    </filter>
    <filter id="outer-glow-6" filterUnits="userSpaceOnUse">
      <feOffset dx="0" dy="0"/>
      <feGaussianBlur result="blur-6" stdDeviation="3"/>
      <feFlood flood-color="#13ffff" flood-opacity=".6"/>
      <feComposite in2="blur-6" operator="in"/>
      <feComposite in="SourceGraphic"/>
    </filter>
    <filter id="outer-glow-7" filterUnits="userSpaceOnUse">
      <feOffset dx="0" dy="0"/>
      <feGaussianBlur result="blur-7" stdDeviation="3"/>
      <feFlood flood-color="#13ffff" flood-opacity=".6"/>
      <feComposite in2="blur-7" operator="in"/>
      <feComposite in="SourceGraphic"/>
    </filter>
    <filter id="outer-glow-8" filterUnits="userSpaceOnUse">
      <feOffset dx="0" dy="0"/>
      <feGaussianBlur result="blur-8" stdDeviation="3"/>
      <feFlood flood-color="#ff921e" flood-opacity=".6"/>
      <feComposite in2="blur-8" operator="in"/>
      <feComposite in="SourceGraphic"/>
    </filter>
  </defs>
  <g id="about">
    <g id="item">
      <polygon class="cls-13" points="230.86 0 244.16 274.25 0 148.65 230.86 0"/>
      <polygon class="cls-5" points="255.32 52.8 240.32 52.8 258.32 32.8 273.32 32.8 255.32 52.8"/>
      <polygon class="cls-9" points="274.18 52.8 259.18 52.8 277.18 32.8 292.18 32.8 274.18 52.8"/>
      <polygon class="cls-4" points="293.04 52.8 278.04 52.8 296.04 32.8 311.04 32.8 293.04 52.8"/>
      <polygon class="cls-3" points="311.91 52.8 296.91 52.8 314.91 32.8 329.91 32.8 311.91 52.8"/>
      <polygon class="cls-8" points="330.77 52.8 315.77 52.8 333.77 32.8 348.77 32.8 330.77 52.8"/>
      <polygon class="cls-7" points="349.64 52.8 334.64 52.8 352.64 32.8 367.64 32.8 349.64 52.8"/>
      <polygon class="cls-6" points="368.5 52.8 353.5 52.8 371.5 32.8 386.5 32.8 368.5 52.8"/>
      <g>
        <polygon class="cls-12" points="557.75 32.8 390.97 32.8 370.97 57.8 124.13 57.8 124.13 206.43 150.51 232.8 360.19 232.8 380.19 207.8 584.13 207.8 584.13 59.18 557.75 32.8"/>
        <path class="cls-11" d="m360.67,233.8h-210.58l-26.96-26.96V56.8h247.36l20-25h167.67l26.96,26.96v150.04h-204.46l-20,25Zm-209.75-2h208.79l20-25h203.42V59.6l-25.79-25.79h-165.88l-20,25H125.13v147.21l25.79,25.79Z"/>
      </g>
      <polygon class="cls-10" points="302.34 97.26 67.34 97.26 85.34 67.26 320.34 67.26 302.34 97.26"/>
      <g>
        <path class="cls-11" d="m158.34,86.05h1.13v-4.46h1.12v-3.33h1.1v-3.33h1.31v3.33h1.12v3.33h1.1v4.46h1.12v3.55h-1.3v-3.37h-5.36v3.37h-1.33v-3.55Zm5.58-1.12v-3.15h-1.12v-3.33h-.92v3.33h-1.12v3.15h3.15Z"/>
        <path class="cls-11" d="m167.34,76.03h1.33v4.46h.92v-1.12h3.53v1.12h1.1v1.1h1.12v5.76h-1.12v1.12h-1.1v1.13h-3.53v-1.13h-.92v1.13h-1.33v-13.57Zm2.43,11.14v1.1h3.15v-1.1h1.12v-5.38h-1.12v-1.12h-3.15v1.12h-1.1v5.38h1.1Z"/>
        <path class="cls-11" d="m177.47,87.35h-1.13v-5.76h1.13v-1.1h1.12v-1.12h3.53v1.12h1.1v1.1h1.12v5.76h-1.12v1.12h-1.1v1.13h-3.53v-1.13h-1.12v-1.12Zm1.3-.18v1.1h3.15v-1.1h1.12v-5.38h-1.12v-1.12h-3.15v1.12h-1.1v5.38h1.1Z"/>
        <path class="cls-11" d="m186.47,87.35h-1.13v-7.97h1.33v7.79h1.1v1.1h3.15v-1.1h1.12v-7.79h1.3v10.22h-1.3v-1.13h-.92v1.13h-3.53v-1.13h-1.12v-1.12Z"/>
        <path class="cls-11" d="m197.15,80.67h-2.25v-1.3h2.25v-3.35h1.3v3.35h3.33v1.3h-3.33v7.6h3.33v1.33h-3.53v-1.13h-1.1v-7.79Z"/>
        <path class="cls-11" d="m212.34,74.93h1.33v2.21h1.1v3.35h1.12v4.45h.92v-4.45h1.12v-3.35h1.12v-2.21h1.3v14.67h-1.3v-8.93h-.92v4.46h-1.12v3.33h-1.31v-3.33h-1.1v-4.46h-.92v8.93h-1.33v-14.67Z"/>
        <path class="cls-11" d="m222.47,87.35h-1.13v-5.76h1.13v-1.1h1.12v-1.12h3.53v1.12h1.1v1.1h1.12v3.55h-6.66v2.03h1.1v1.1h3.15v-1.1h1.12v-1.12h1.3v1.3h-1.12v1.12h-1.1v1.13h-3.53v-1.13h-1.12v-1.12Zm5.56-3.53v-2.03h-1.12v-1.12h-3.15v1.12h-1.1v2.03h5.36Z"/>
      </g>
      <path class="cls-11" d="m165.8,115.55h6.15v5.06h-7.3v-4.19l-3.53,2.65v-1.33l4.03-3.04-1.32-2.59-2.41,2.03v-1.39l4.5-3.78h1.67l-1.27,1.06h5.29v1.13l-5.81,4.38Zm-.71-4.48l-.39.34,1.33,2.62,3.91-2.96h-4.85Zm5.8,8.5v-2.98h-5.18v2.98h5.18Z"/>
      <path class="cls-11" d="m183.02,110.19h3.6v1.04h-11.7v-1.04h6.86l.85-1.48h1.23l-.85,1.48Zm-7.19,10.56v-8.52h4.52v8.52h-1.04v-3.22h-2.47v3.22h-1.02Zm3.49-7.51h-2.47v1.13h2.47v-1.13Zm-2.47,3.28h2.47v-1.13h-2.47v1.13Zm2.49-6.6h-1.23l-.71-1.22h1.25l.7,1.22Zm2.24,8.81v-5.91h1.05v5.91h-1.05Zm3.01,2.02v-8.63h1.08v8.63h-1.08Z"/>
      <path class="cls-11" d="m195.76,113.17h-1.99v-2h1.99v2Zm0,5.07h-1.99v-1.99h1.99v1.99Z"/>
      <path class="cls-11" d="m244.69,112.78v1.3l-5.93-4.05-5.91,4.09v-1.3l5.92-4.08,5.91,4.03Zm-5.45,6.72h5.25v1.04h-11.46v-1.04h5.11v-3.19h-4.47v-1.04h4.47v-1.6h-2.82v-1.05h6.88v1.05h-2.97v1.6h4.71v1.04h-4.71v3.19Zm-1.55-.24h-1.26l-1.92-2.73h1.26l1.92,2.73Zm2.02,0l1.92-2.73h1.27l-1.92,2.73h-1.27Z"/>
      <path class="cls-11" d="m252.61,117.23v1.12l-5.76,2.26v-1.12l.78-.31v-6.43h1.01v6.02l.8-.31v-7.94h-2.51v-1.04h5.73v1.04h-2.16v2.42h1.6v1.02h-1.6v4.08l2.1-.81Zm6.08-5.63h-.85l-1.74,3.89,2.56,5.25h-1.19l-2.09-4.26-1.89,4.26h-1.15l2.47-5.53-.97-1.99-.35,1.16h-1.12l1.74-5.62h1.11l-.56,1.82h4.03v1.01Zm-3.24,2.68l1.2-2.68h-2.31l-.39,1.29h.83l.67,1.39Z"/>
      <path class="cls-11" d="m267.28,111.1v.2l5.28,3.61v1.26l-5.28-3.63v2.93h-1.08v-2.84l-5.22,3.67v-1.25l5.22-3.67v-.28h-5.03v-1.01h5.03v-1.32h1.08v1.32h5.07v1.01h-5.07Zm-4.57,9.51v-4.93h8.12v4.93h-8.12Zm1.05-3.92v2.91h6v-2.91h-6Z"/>
      <path class="cls-11" d="m281.3,119.55h5.17v1.06h-11.39v-1.06h5.14v-1.32h-4.12v-1.05h4.12v-1.27h-4.2v-6.84h9.5v6.84h-4.22v1.27h4.13v1.05h-4.13v1.32Zm-1.08-9.44h-3.11v1.82h3.11v-1.82Zm-3.11,4.76h3.11v-1.9h-3.11v1.9Zm7.31-2.94v-1.82h-3.12v1.82h3.12Zm-3.12,2.94h3.12v-1.9h-3.12v1.9Z"/>
      <path class="cls-11" d="m298.17,114.7c0,2.73.97,4.79,2.9,6.46l-.28.24c-2.62-1.53-3.74-4.2-3.74-6.7s1.12-5.17,3.74-6.7l.28.24c-1.93,1.67-2.9,3.73-2.9,6.46Z"/>
      <path class="cls-11" d="m305.92,109.28v2.35h6.09v5.84l-1.89,2.69h-2.98v-1.01h2.44l1.39-1.99v-4.5h-5.04v5.66l-1.37,1.95h-1.25l1.57-2.24v-5.36h-1.57v-1.04h1.57v-2.35h1.05Zm7.47,1.06l1.04,1.5v7.12h-1.02v-6.79l-1.27-1.82h1.26Z"/>
      <path class="cls-11" d="m327.84,116.93h.74v.91h-.95l-1.54,2.2h-3.29v-3.11h4.01v-4.79h-4.06l-2,2.86v5.28h-1.05v-3.8l-2.13,3.04v-1.81l2.13-3.03v-1.79h-2.13v-1.04h2.13v-2.63h1.05v3.94l1.43-2.03h5.67v5.8Zm-2.2,2.09l.83-1.18h-2.63v1.18h1.81Z"/>
      <path class="cls-11" d="m341.8,111.55h-2.7v1.79h2.7v.99h-2.7v2.66h2.59v.99h-2.59l-1.53,2.17h-5.58v-4.05h6.07v-1.76h-6.3v-1.01h6.3v-1.78h-6.3v-1.01h6.3v-1.33h1.04v1.33h2.7v.99Zm-3.74,6.15v-.59h-5.01v2.07h3.98l1.04-1.48Z"/>
      <path class="cls-11" d="m348.5,115.9l-1.22,1.75v1.46h6.36l.63-.91h1.29l-1.37,1.96h-7.98v-2.77l1.78-2.54h4.34v-2.89h-6.77v-1.05h6.77v-1.69h1.06v1.69h2.61v1.05h-2.61v3.94h-4.89Z"/>
      <path class="cls-11" d="m378.28,113.14h5.74v4.72l-1.68,2.41h-4.37v-.92h3.77l1.23-1.78v-3.39h-4.72v2.51l2.82-1.98v1.27l-5.01,3.52h-2.55v-4.44l1.34-1.92h2.4v-1.68h-3.68v-.99h3.68v-1.34h1.04v1.26h5.7v1.04h-5.7v1.72Zm-1.04,4.24v-3.21h-1.88l-.83,1.18v3.22h1.01l1.69-1.19Z"/>
      <path class="cls-11" d="m396.41,119.25h1.58v1.02h-2.63v-6.02h-4.19l-1.06,6.02h-1.64v-11.05h1.08v8.99l.88-5h5.98v6.04Z"/>
      <path class="cls-11" d="m403.68,115.9h1.39v1.04h-2.47v-7.45h1.08v6.42Zm5.06-6.23h2.13v7.35l-2.27,3.25h-4.99v-1.02h4.43l1.77-2.52v-6.06h-1.06v-.99Z"/>
      <path class="cls-11" d="m417.36,114.7c0-2.73-.97-4.79-2.9-6.46l.29-.24c2.61,1.53,3.73,4.2,3.73,6.7s-1.12,5.17-3.73,6.7l-.29-.24c1.93-1.67,2.9-3.73,2.9-6.46Z"/>
      <path class="cls-11" d="m164.31,135.25v.99h-3.46v-.99h3.46Zm-.28-1.71v.98h-2.9v-.98h2.9Zm-2.87,11.57v-4.69h2.94v4.69h-2.94Zm2.83-8.14v.97h-2.82v-.97h2.82Zm-2.82,2.68v-.98h2.82v.98h-2.82Zm.97,1.69v2.86h1.01v-2.86h-1.01Zm5.34,2.72h5.21v.99h-5.88l-.78-1.9-.67,2.1h-1.06l1.12-3.54-.87-2.07h1.08l.25.6.52-1.62h-1.79l1.23-3.88h-1.26v-.99h2.62l-1.23,3.88h1.81l-1.27,4.06.99,2.38Zm2.28-2.1v-6.75l-1.88.59v-1.05l4.36-1.36v1.05l-1.46.45v2.47h1.54v1.01h-1.54v3.6h1.91v.99h-5.21v-.99h.49v-5.18h1.04v5.18h.76Z"/>
      <path class="cls-11" d="m181.31,143.88h5.1v1.09h-11.28v-1.09h5.04v-3.52h-3.42v-1.06h3.42v-2.7h-3.03l-1.11,2.37h-1.22l2.52-5.41h1.22l-.9,1.95h2.51v-2.21h1.13v2.21h4.15v1.09h-4.15v2.7h3.46v1.06h-3.46v3.52Z"/>
      <path class="cls-11" d="m190.51,133.62h8.52v11.46h-8.52v-11.46Zm7.42,1.06h-6.33v3.8h6.33v-3.8Zm-6.33,9.33h6.33v-4.48h-6.33v4.48Z"/>
      <path class="cls-11" d="m209.76,137.67h-1.99v-2h1.99v2Zm0,5.07h-1.99v-1.99h1.99v1.99Z"/>
      <path class="cls-11" d="m230.03,133.62h4.38v11.37h-1.09v-10.31h-3.29v-1.06Z"/>
      <path class="cls-11" d="m236.34,133.61h8.04v11.36h-8.04v-3.08h1.08v2.06h5.88v-3.67h-6.96v-6.67Zm1.08,5.63h5.88v-4.59h-5.88v4.59Z"/>
      <path class="cls-11" d="m246.31,133.61h8.04v11.36h-8.04v-3.08h1.08v2.06h5.88v-3.67h-6.96v-6.67Zm1.08,5.63h5.88v-4.59h-5.88v4.59Z"/>
      <path class="cls-11" d="m264.32,136.69h-1.08v-2.05h-5.88v4.59h6.96v5.73h-8.04v-11.36h8.04v3.08Zm-1.08,3.59h-5.88v3.67h5.88v-3.67Z"/>
      <path class="cls-11" d="m270.66,133.55h.83l-5.11,11.56h-.83l5.11-11.56Z"/>
      <path class="cls-11" d="m272.01,133.62h4.38v11.37h-1.09v-10.31h-3.29v-1.06Z"/>
      <path class="cls-11" d="m278.33,133.61h8.04v11.36h-8.04v-11.36Zm1.08,10.34h5.88v-9.3h-5.88v9.3Z"/>
      <path class="cls-11" d="m292.71,133.55h.83l-5.11,11.56h-.83l5.11-11.56Z"/>
      <path class="cls-11" d="m294.06,133.62h4.38v11.37h-1.09v-10.31h-3.29v-1.06Z"/>
      <path class="cls-11" d="m307.34,133.61h1.09v11.36h-1.09v-3.98h-6.96v-7.38h1.09v6.33h5.87v-6.33Z"/>
      <path class="cls-11" d="m164.09,165.21v3.36h8.6v1.01h-9.19l-1.3-2.26-.43,2.42h-1.01l.98-5.5h1.01l-.28,1.58.6,1.06v-4.2h-2.21v-1.01h1.9v-1.5h-1.64v-1.01h1.64v-1.4h1.04v1.4h1.32v1.01h-1.32v1.5h1.58v1.01h-1.29v1.53h1.61v.99h-1.61Zm1.23-6.95h7.37v1.01h-4.02v9.05h-.92v-1.29l-2.51.91v-1.02l.6-.21v-7.44h-.52v-1.01Zm2.42,2.52v-1.51h-.98v1.51h.98Zm0,2.49v-1.51h-.98v1.51h.98Zm-.98,3.1l.98-.35v-1.75h-.98v2.1Zm2.96,1.95h-1.02l1.39-3.63-1.02-2.61h1.02l.48,1.23.84-2.17h-2.62v-1.04h3.73v.97l-1.34,3.5,1.46,3.74h-1.06l-.92-2.38-.91,2.38Z"/>
      <path class="cls-11" d="m175.12,167.73v-8.99h3.63v8.99h-3.63Zm1.08-7.94v6.89h1.48v-6.89h-1.48Zm10.49,7.82v1.5l-3.39-3.54v4.19h-1.05v-4.09l-3.31,3.47v-1.47l3.31-3.47v-.56h-3.29v-1.05h3.29v-1.91h-2.7v-1.05h2.7v-1.85h1.05v1.85h2.77v1.05h-2.77v1.91h3.38v1.05h-3.38v.43l3.39,3.54Z"/>
      <path class="cls-11" d="m195.76,162.17h-1.99v-2h1.99v2Zm0,5.07h-1.99v-1.99h1.99v1.99Z"/>
      <path class="cls-11" d="m235.68,158.22v1.9h8.26v1.04h-1.39v4.12l-2.73,3.88h-4.13v-1.02h3.59l2.21-3.15v-3.82h-5.81v3.15l-.8,1.13h-1.3l1.02-1.47v-5.76h1.08Zm6.58-.62h.83l1.46,2.09h-.83l-1.46-2.09Zm1.99-.6l1.47,2.09h-.83l-1.47-2.09h.83Z"/>
      <path class="cls-11" d="m258.22,164.37h-10.88v-1.06h10.88v1.06Z"/>
      <path class="cls-11" d="m270.48,163.29h1.08v5.87h-9.51v-6.04l3.04-4.33h1.3l-3.26,4.66v4.65h7.35v-4.82Z"/>
      <path class="cls-11" d="m277.67,168.83v1.26l-3.21-2.24v-1.26l3.21,2.24Z"/>
      <path class="cls-11" d="m289.56,158.94h10.42v3.68l-1.93,2.76h-3.17v-1.04h2.61l1.43-2.03v-2.33h-9.36v-1.05Zm3.15,3.11h1.09v5.18l-1.44,2.04h-1.3l1.65-2.35v-4.87Z"/>
      <path class="cls-11" d="m309.13,159.82h4.61v4.16l-3.63,5.18h-5.14v-1.02h4.57l3.12-4.45v-2.83h-7.77v3.45h-1.08v-4.48h4.23v-1.71h1.09v1.71Z"/>
      <path class="cls-11" d="m323.91,162.69l3.88,2.72v1.32l-4.26-2.98h-2.55v5.53h-1.09v-11.05h1.09v4.47h2.93Z"/>
      <path class="cls-11" d="m337.91,162.69l3.88,2.72v1.32l-4.26-2.98h-2.55v5.53h-1.09v-11.05h1.09v4.47h2.93Zm2.7-1.33h-.81l-1.47-2.09h.83l1.46,2.09Zm1.11-.83h-.81l-1.47-2.09h.83l1.46,2.09Z"/>
      <path class="cls-11" d="m345.56,158.94h10.42v3.68l-1.93,2.76h-3.17v-1.04h2.61l1.43-2.03v-2.33h-9.36v-1.05Zm3.15,3.11h1.09v5.18l-1.44,2.04h-1.3l1.65-2.35v-4.87Z"/>
      <path class="cls-11" d="m361.67,168.83v1.26l-3.21-2.24v-1.26l3.21,2.24Z"/>
      <path class="cls-11" d="m373.56,158.94h10.42v3.68l-1.93,2.76h-3.17v-1.04h2.61l1.43-2.03v-2.33h-9.36v-1.05Zm3.15,3.11h1.09v5.18l-1.44,2.04h-1.3l1.65-2.35v-4.87Z"/>
      <path class="cls-11" d="m397.99,168.7h-10.44v-1.08h10.44v1.08Zm-.76-7.42h-8.94v-1.08h8.94v1.08Z"/>
      <path class="cls-11" d="m411.98,167.59v1.29l-3.68-2.58-4.09,2.86h-2.65v-1.01h2.3l3.56-2.48-4.93-3.46v-1.26l5.58,3.91,1.11-6.26h1.08l-1.23,6.92,2.97,2.07Z"/>
      <path class="cls-11" d="m417.67,168.83v1.26l-3.21-2.24v-1.26l3.21,2.24Z"/>
      <path class="cls-11" d="m433.55,160.31h6.43v6.05l-2,2.86h-3.45v-1.02h2.9l1.5-2.14v-4.72h-5.38v4.27l-2.58,3.67h-1.26l2.79-3.96v-3.98h-2.94v-1.02h2.94v-2.09h1.05v2.09Z"/>
      <path class="cls-11" d="m453.75,159.22v4.73l-3.66,5.21h-5.21v-1.02h4.65l3.15-4.5v-3.39h-8.91v-1.04h9.97Z"/>
      <path class="cls-11" d="m463.26,167.83h3.77v1.01h-8.53v-1.01h3.74v-5.13h1.02v5.13Zm3.45-6.51v1.01h-7.87v-1.01h7.87Z"/>
      <path class="cls-11" d="m475.21,168.52h7.48v1.04h-7.89l-1.71-1.44-2.26,1.64v-1.27l1.68-1.22v-3.91h-1.58v-1.04h2.63v4.83l1.64,1.37Zm-1.41-9.02v1.09l-2.62-.95v-1.09l2.62.95Zm3.49,7.77h-1.16l-2.17-4.61,1.78-4.41h1.11l-1.75,4.36,2.2,4.66Zm1.5,0l-2.24-4.54,1.81-4.48h1.11l-1.78,4.41,2.27,4.61h-1.16Zm2.72,0l-2.2-4.57,1.85-4.45h1.11l-1.81,4.4,2.21,4.62h-1.16Z"/>
      <path class="cls-11" d="m487.68,164.9h1.39v1.04h-2.47v-7.45h1.08v6.42Zm5.06-6.23h2.13v7.35l-2.27,3.25h-4.99v-1.02h4.43l1.77-2.52v-6.06h-1.06v-.99Z"/>
      <path class="cls-11" d="m172.36,182.95v1.01h-9.81v8.52l-.66,1.78h-1.12l.69-1.85v-9.46h5.04v-.78h1.05v.78h4.8Zm-4.22,8.67v1.47h4.5v1.02h-9.99v-1.02h4.44v-1.47h-3.45v-1.02h3.45v-6.37h1.05v6.37h3.52v1.02h-3.52Zm-3.71-6.84h1.02v2.91l1.44,2.06h-1.19l-.8-1.13-.84,1.37h-1.19l1.55-2.54v-2.68Zm5.36,0h1.01v2.63l1.79,2.58h-1.25l-1.02-1.46-.87,1.43h-1.16l1.5-2.44v-2.75Z"/>
      <path class="cls-11" d="m179.83,184.46h6.68v1.06h-7.23l-3.22,6.42h-1.22l3.22-6.42h-3.04v-1.06h3.57l1.09-2.19h1.23l-1.09,2.19Zm-1.82,9.62v-5.91h7.45v5.91h-7.45Zm1.08-4.86v3.81h5.27v-3.81h-5.27Z"/>
      <path class="cls-11" d="m191.45,183.95h8.53v7.56l-1.58,2.25h-2.9v-1.02h2.37s1.06-1.53,1.06-1.53v-6.23h-6.95l-1.4,2v4.92h2.58l1.05-6h1.06l-1.25,7.03h-4.5v-6.25l1.92-2.75Z"/>
      <path class="cls-11" d="m208,185.1l-2.49-1.62-2.65,1.95v-1.3l2.59-1.92,2.55,1.67v1.23Zm-1.12,6.3h-.88v.78l1.6-.41v1.08l-4.73,1.2v-1.09l2.1-.53v-4.29h-1.96v-.95h1.96v-1.16h-1.33v-.95h3.74v.95h-1.37v1.16h2.04v.95h-2.04v2.89l.91-2.35h1.01l-1.04,2.72Zm-3.22-2.8h.87v3.53h-.87v-3.53Zm6.53.66h4.38v4.85h-4.73v-4.48l-1.91,2.02v-1.51l2.38-2.52-.92-2.16-1.18,1.26v-1.53l2.7-2.91h1.41l-1.16,1.26h3.19v1.3l-4.17,4.43Zm.04-4.72l-.1.1.94,2.16,2.13-2.26h-2.97Zm3.29,8.53v-2.77h-2.68v2.77h2.68Z"/>
      <path class="cls-11" d="m223.76,186.67h-1.99v-2h1.99v2Zm0,5.07h-1.99v-1.99h1.99v1.99Z"/>
      <path class="cls-11" d="m236.88,183.69l-1.01,1.91h3.03v1.2l-3.99,7.45h-1.19l2.09-3.89-1.53-1.78-1.3,2.41v-2.19l2.75-5.11h-2.65v-.99h11.42v.99h-7.61Zm.94,2.91h-2.49l-.53.99,1.53,1.79,1.5-2.79Zm2.51,6.5h4.31v1.01h-5.37v-9.95h1.05v4.1l4.08-2.21v1.13l-4.08,2.2v3.71Z"/>
      <path class="cls-11" d="m257.37,192.46l.95.67-.55.77-.95-.66-.38.53h-3.17v-3.4h1.12l2.13,1.5.55-.78v-4.62h-2.1l-5.04,7.2h-2.24v-8.21h1.68l-.43-2.47h1.05l.43,2.47h4.09l1.9-2.73h1.26l-1.9,2.73h2.31v5.98l-.71,1.02Zm-7.96.22l4.36-6.22h-3.14l.49,2.76h-1.01l-.49-2.76h-.9v6.22h.69Zm6.46.11l.11-.15-1.71-1.19v1.34h1.6Z"/>
      <path class="cls-11" d="m262.96,192.61h8.71v1.05h-9.78v-4.38l1.02-1.46h1.29l-1.25,1.77v3.03Zm-.62-8.99h8.8v2.69h-1.05v-1.64h-7.75v-1.05Z"/>
      <path class="cls-11" d="m277.31,192.6h8.42v1.06h-9.48v-5.36l2.25-3.22h.88v-2.35h1.08v2.35h4.24v1.06h-4.24v2.06h-1.08v-2.06h-.38l-1.69,2.42v4.03Z"/>
      <path class="cls-11" d="m294.15,188.76v1.25l-5.29,3.05v-1.23l1.36-.78v-8.59h1.11v7.94l2.83-1.64Zm1.33-1.89h-1.26l-2.02-3.49h1.26l2.02,3.49Zm5.17,7.38h-1.29l-2.83-4.9-2.83,4.9h-1.26l6.75-11.7h1.26l-3.28,5.69,3.47,6.01Z"/>
      <path class="cls-11" d="m309.62,183.86v1.2l-5.42,9.19h-1.19l2.79-4.73-1.2-2.59-1.57,2.66v-2.03l3.11-5.28h1.21l-.94,1.58h3.22Zm-3.18,4.58l2.1-3.57h-2.73l-.59.98,1.22,2.59Zm8.25.45v1.09l-3.32-1.2v5.48h-1.09v-5.87l-1.44-.52v-1.11l1.44.53v-5.01h1.09v5.41l3.32,1.2Z"/>
      <path class="cls-11" d="m319.92,182.78v2.35h6.09v5.84l-1.89,2.69h-2.98v-1.01h2.44l1.39-1.99v-4.5h-5.04v5.66l-1.37,1.95h-1.25l1.57-2.24v-5.36h-1.57v-1.04h1.57v-2.35h1.05Zm7.47,1.06l1.04,1.5v7.12h-1.02v-6.79l-1.27-1.82h1.26Z"/>
      <path class="cls-11" d="m342.05,184.18v1.04h-1.51v5.81l-1.89,2.69h-6.54v-1.02h6l1.39-1.98v-1.36l-1.12,1.6h-5.94v-4.16h6.05l1.01,1.44v-3.03h-7.98v-1.04h7.98v-1.46h1.05v1.46h1.51Zm-4.16,5.83l.84-1.2-.73-1.05h-4.58v2.25h4.47Z"/>
      <path class="cls-11" d="m347.68,189.4h1.39v1.04h-2.47v-7.45h1.08v6.42Zm5.06-6.23h2.13v7.35l-2.27,3.25h-4.99v-1.02h4.43l1.77-2.52v-6.06h-1.06v-.99Z"/>
      <path class="cls-11" d="m362.22,182.27l-.99,2.97v9.01h-1.04v-5.91l-.21.63h-1.11l2.23-6.7h1.12Zm8.47,7h-5.88l-.35.46h5.77l-.35,4.43h-2.72v-.91h1.75l.21-2.56h-.99l-2.62,3.42h-1.2l2.63-3.42h-1.11l-2.41,3.14h-1.19l2.41-3.14h-.92l-1.02,1.33h-1.22l2.1-2.75h-1.62v-.9h8.74v.9Zm-7.75-4.12h-1.16l1.48-2.89h1.16l-.34.66h6.32v.95h-6.81l-.66,1.27Zm6.46,2.84h-5.85v-3.7h5.85v3.7Zm-1.02-2.83h-3.82v.55h3.82v-.55Zm-3.82,1.96h3.82v-.55h-3.82v.55Z"/>
    </g>
  </g>
</svg>