<?xml version="1.0" encoding="UTF-8"?>
<svg id="_レイヤー_2" data-name="レイヤー 2" xmlns="http://www.w3.org/2000/svg" viewBox="0 0 260.04 179.93">
  <defs>
    <style>
      .cls-1 {
        fill: #f28704;
      }

      .cls-2 {
        fill: #fff;
      }
    </style>
  </defs>
  <g id="about">
    <g id="item">
      <polygon class="cls-1" points="189.74 129.08 164 158.74 184 158.74 209.74 129.08 189.74 129.08"/>
      <polygon class="cls-1" points="215.45 129.08 189.72 158.74 209.72 158.74 235.45 129.08 215.45 129.08"/>
      <polygon class="cls-1" points="240.04 129.08 214.3 158.74 234.3 158.74 260.04 129.08 240.04 129.08"/>
      <g>
        <path class="cls-2" d="m209.02,43H0V14.21L14.21,0h194.81v43ZM3,40h203.02V3H15.45L3,15.45v24.55Z"/>
        <polygon class="cls-2" points="51.49 42.27 86.67 2.27 15.62 2.27 1.5 15.61 1.5 42.27 205.52 42.27 51.49 42.27"/>
      </g>
      <g>
        <path class="cls-2" d="m209.02,103.77H0v-28.79l14.21-14.21h194.81v43ZM3,100.77h203.02v-37H15.45l-12.45,12.45v24.55Z"/>
        <polygon class="cls-2" points="51.49 103.05 86.67 63.05 15.62 63.05 1.5 76.38 1.5 103.05 205.52 103.05 51.49 103.05"/>
      </g>
      <g>
        <polygon class="cls-2" points="217.32 165.2 209.02 160.2 209.02 164.64 0 164.64 0 135.85 14.21 121.64 209.02 121.64 209.02 125.48 217.15 118.85 219.05 121.17 206.02 131.8 206.02 124.64 15.45 124.64 3 137.09 3 161.64 206.02 161.64 206.02 154.9 218.87 162.62 217.32 165.2"/>
        <polygon class="cls-2" points="51.49 163.91 86.67 123.91 15.62 123.91 1.5 137.24 1.5 163.91 205.52 163.91 51.49 163.91"/>
      </g>
      <g>
        <path d="m23.7,14.56h1.33v6.66h5.36v-6.66h1.3v14.67h-1.3v-6.7h-5.36v6.7h-1.33v-14.67Z"/>
        <path d="m32.7,14.56h5.78v1.1h1.1v1.12h1.12v4.64h-1.12v1.12h-1.1v1.12h-4.45v5.58h-1.33v-14.67Zm5.58,7.78v-1.12h1.12v-4.25h-1.12v-1.12h-4.25v6.48h4.25Z"/>
      </g>
      <g>
        <path d="m11.63,87.32h3.47v-.85h1.74v-.73h-5.21v-1.01h6.06v-.71h-4.31v-3.46h-.71v.85h-1.04v-1.01h.88v-.87h.87v-.87h.85v-1.72h.87v-.87h1.02v1.01h-.87v.71h2.44v-.85h.87v-.87h1.02v1.01h-.87v.71h5.18v1.02h-5.18v.71h4.33v1.02h-4.33v.71h4.33v1.01h-4.33v.71h5.18v1.02h-5.18v.71h6.05v1.01h-5.18v.73h1.72v.85h3.46v1.04h-3.61v-.88h-1.72v-.87h-.71v2.62h-1.02v-2.62h-.71v.87h-1.72v.88h-3.63v-1.04Zm6.06-7.78v-.71h-3.3v.71h3.3Zm0,1.74v-.71h-3.3v.71h3.3Zm0,1.72v-.71h-3.3v.71h3.3Z"/>
        <path d="m26.49,78.67h5.18v-2.59h1.02v2.59h5.18v7.07h-1.01v-.85h-4.17v4.34h-1.02v-4.34h-4.17v.85h-1.01v-7.07Zm5.18,5.19v-4.17h-4.17v4.17h4.17Zm5.19,0v-4.17h-4.17v4.17h4.17Z"/>
        <path d="m41.81,88.19v-.87h.85v-.85h.87v-.87h.87v-1.74h.87v-1.74h.85v-1.57h-5.18v-1.02h5.18v-3.46h1.02v3.46h5.18v7.07h-.85v1.75h-.87v.87h-3.61v-1.04h3.46v-1.72h.87v-5.91h-4.17v1.72h-.87v1.74h-.87v1.72h-.85v.87h-.87v.87h-.87v.88h-.87v.87h-1.89v-1.04h1.75Z"/>
      </g>
      <g>
        <path d="m12.49,139.54h3.46v-.87h.87v-.85h.85v-.87h1.02v1.01h-.87v.87h-.87v.71h6.92v9.69h-.85v.87h-2.74v-1.04h2.59v-8.5h-9.37v9.53h-1.01v-10.56Zm2.59,2.6h6.2v4.47h-6.2v-4.47Zm5.19,3.46v-2.45h-4.17v2.45h4.17Z"/>
        <path d="m25.63,148.19h5.21v-11.24h1.01v5.19h5.19v1.01h-5.19v5.04h6.92v1.04h-13.13v-1.04Z"/>
        <path d="m39.63,145.6h.88v-2.6h1.01v2.76h-.85v1.72h-1.04v-1.88Zm3.47-5.19h1.02v7.78h5.03v-2.59h1.02v2.74h-.87v.88h-5.33v-.88h-.87v-7.94Zm2.59-1.58h-.85v-1.01h1.01v.85h1.74v.87h.85v1.02h-1.01v-.87h-1.74v-.87Zm5.19,4.17h1.01v1.74h.87v1.88h-1.02v-1.72h-.85v-1.89Z"/>
      </g>
      <g>
        <polygon class="cls-1" points="87.85 6.67 62.12 36.33 82.12 36.33 107.85 6.67 87.85 6.67"/>
        <polygon class="cls-1" points="112.38 6.67 86.64 36.33 106.64 36.33 132.38 6.67 112.38 6.67"/>
        <polygon class="cls-1" points="138.09 6.67 112.36 36.33 132.36 36.33 158.09 6.67 138.09 6.67"/>
        <polygon class="cls-1" points="163.81 6.67 138.07 36.33 158.07 36.33 183.81 6.67 163.81 6.67"/>
        <polygon class="cls-1" points="200.85 6.67 189.53 6.67 163.79 36.33 183.79 36.33 200.85 16.66 200.85 6.67"/>
        <polygon class="cls-1" points="189.5 36.33 200.85 36.33 200.85 23.25 189.5 36.33"/>
      </g>
      <g>
        <polygon class="cls-1" points="87.85 68.22 62.12 97.87 82.12 97.87 107.85 68.22 87.85 68.22"/>
        <polygon class="cls-1" points="112.38 68.22 86.64 97.87 106.64 97.87 132.38 68.22 112.38 68.22"/>
        <polygon class="cls-1" points="138.09 68.22 112.36 97.87 132.36 97.87 158.09 68.22 138.09 68.22"/>
        <polygon class="cls-1" points="163.81 68.22 138.07 97.87 158.07 97.87 183.81 68.22 163.81 68.22"/>
        <polygon class="cls-1" points="200.85 68.22 189.53 68.22 163.79 97.87 183.79 97.87 200.85 78.21 200.85 68.22"/>
        <polygon class="cls-1" points="189.5 97.87 200.85 97.87 200.85 84.8 189.5 97.87"/>
      </g>
      <polygon class="cls-1" points="87.85 129.08 62.12 158.74 82.12 158.74 107.85 129.08 87.85 129.08"/>
      <polygon class="cls-1" points="112.38 129.08 86.64 158.74 106.64 158.74 132.38 129.08 112.38 129.08"/>
      <polygon class="cls-1" points="138.09 129.08 112.36 158.74 132.36 158.74 158.09 129.08 138.09 129.08"/>
      <polygon class="cls-1" points="163.81 129.08 138.07 158.74 158.07 158.74 183.81 129.08 163.81 129.08"/>
      <polygon class="cls-2" points="217.82 108.73 212.74 111.66 217.82 114.59 217.82 108.73"/>
      <polygon class="cls-2" points="234.51 118.58 228.67 118.07 231.14 123.38 234.51 118.58"/>
      <polygon class="cls-2" points="218.03 174.13 217.17 179.93 222.62 177.78 218.03 174.13"/>
      <polygon class="cls-2" points="230.4 167.06 234.03 171.66 236.2 166.22 230.4 167.06"/>
    </g>
  </g>
</svg>