<?xml version="1.0" encoding="UTF-8"?>
<svg id="_レイヤー_2" data-name="レイヤー 2" xmlns="http://www.w3.org/2000/svg" viewBox="0 0 25 37.5">
  <defs>
    <style>
      .cls-1 {
        fill: #b3b3b3;
      }

      .cls-2 {
        opacity: .39;
      }
    </style>
  </defs>
  <g id="top">
    <g id="bg">
      <g class="cls-2">
        <path class="cls-1" d="m0,37.5V0h16.7c2.27,0,4.22.83,5.85,2.47,1.63,1.65,2.45,3.61,2.45,5.88v20.8c0,2.27-.82,4.22-2.45,5.88-1.63,1.65-3.58,2.47-5.85,2.47H0Zm8.35-4.15h4.15c1.17,0,2.16-.42,2.97-1.25.82-.83,1.22-1.82,1.22-2.95V8.35c0-1.17-.41-2.16-1.22-2.97-.82-.82-1.81-1.22-2.97-1.22h-4.15v29.2Z"/>
      </g>
    </g>
  </g>
</svg>