<?xml version="1.0" encoding="UTF-8"?>
<svg id="_レイヤー_2" data-name="レイヤー 2" xmlns="http://www.w3.org/2000/svg" xmlns:xlink="http://www.w3.org/1999/xlink" viewBox="0 0 1368.12 523.84">
  <defs>
    <style>
      .cls-1 {
        fill: #333;
      }

      .cls-2 {
        filter: url(#drop-shadow-1);
      }
    </style>
    <filter id="drop-shadow-1" filterUnits="userSpaceOnUse">
      <feOffset dx="5" dy="5"/>
      <feGaussianBlur result="blur" stdDeviation="7"/>
      <feFlood flood-color="#000" flood-opacity=".6"/>
      <feComposite in2="blur" operator="in"/>
      <feComposite in="SourceGraphic"/>
    </filter>
  </defs>
  <g id="works">
    <g id="bg">
      <g class="cls-2">
        <path class="cls-1" d="m837.83,176.64v32.28h-33.86c0,9.35-7.58,16.93-16.93,16.93s-16.93-7.58-16.93-16.93h-33.86v-33.86h0c-9.35,0-16.93-7.58-16.93-16.93s7.58-16.93,16.93-16.93h0v-33.86h32.25c.86,9.49,8.83,16.93,18.54,16.93s17.69-7.44,18.54-16.93h32.25v32.28c-9.33,1.01-16.59,8.91-16.59,18.51s7.26,17.5,16.59,18.51Z"/>
        <path class="cls-1" d="m526.82,243.92v-32.28h33.86c0-9.35,7.58-16.93,16.93-16.93s16.93,7.58,16.93,16.93h33.86v33.86h0c9.35,0,16.93,7.58,16.93,16.93s-7.58,16.93-16.93,16.93h0v33.86h-32.25c-.86-9.49-8.83-16.93-18.54-16.93s-17.69,7.44-18.54,16.93h-32.25v-32.28c9.33-1.01,16.59-8.91,16.59-18.51s-7.26-17.5-16.59-18.51Z"/>
        <path class="cls-1" d="m421.85,349.85v-32.28h33.86c0-9.35,7.58-16.93,16.93-16.93s16.93,7.58,16.93,16.93h33.86v33.86h0c9.35,0,16.93,7.58,16.93,16.93s-7.58,16.93-16.93,16.93h0v33.86h-32.25c-.86-9.49-8.83-16.93-18.54-16.93s-17.69,7.44-18.54,16.93h-32.25v-32.28c9.33-1.01,16.59-8.91,16.59-18.51s-7.26-17.5-16.59-18.51Z"/>
        <path class="cls-1" d="m212.43,280.95v32.28h33.86c0,9.35,7.58,16.93,16.93,16.93s16.93-7.58,16.93-16.93h33.86v-33.86h0c9.35,0,16.93-7.58,16.93-16.93s-7.58-16.93-16.93-16.93h0v-33.86h-32.25c-.86,9.49-8.83,16.93-18.54,16.93s-17.69-7.44-18.54-16.93h-32.25v32.28c9.33,1.01,16.59,8.91,16.59,18.51s-7.26,17.5-16.59,18.51Z"/>
        <path class="cls-1" d="m421.85,176.64v32.28h33.86c0,9.35,7.58,16.93,16.93,16.93s16.93-7.58,16.93-16.93h33.86v-33.86h0c9.35,0,16.93-7.58,16.93-16.93s-7.58-16.93-16.93-16.93h0v-33.86h-32.25c-.86,9.49-8.83,16.93-18.54,16.93s-17.69-7.44-18.54-16.93h-32.25v32.28c9.33,1.01,16.59,8.91,16.59,18.51s-7.26,17.5-16.59,18.51Z"/>
        <path class="cls-1" d="m106.18,176.64v32.28h33.86c0,9.35,7.58,16.93,16.93,16.93s16.93-7.58,16.93-16.93h33.86v-33.86h0c9.35,0,16.93-7.58,16.93-16.93s-7.58-16.93-16.93-16.93h0v-33.86h-32.25c-.86,9.49-8.83,16.93-18.54,16.93s-17.69-7.44-18.54-16.93h-32.25v32.28c9.33,1.01,16.59,8.91,16.59,18.51s-7.26,17.5-16.59,18.51Z"/>
        <path class="cls-1" d="m961.1,158.13c0,9.35-7.58,16.93-16.93,16.93v33.86h-33.86c0,9.35-7.58,16.93-16.93,16.93s-16.93-7.58-16.93-16.93h-33.86v-33.86h0c-9.35,0-16.93-7.58-16.93-16.93s7.58-16.93,16.93-16.93h0v-33.86h32.25c.86,9.49,8.83,16.93,18.54,16.93s17.69-7.44,18.54-16.93h32.25v33.86c9.35,0,16.93,7.58,16.93,16.93Z"/>
        <path class="cls-1" d="m682.06,194.71c9.35,0,16.93,7.58,16.93,16.93h33.86v33.86c9.35,0,16.93,7.58,16.93,16.93s-7.58,16.93-16.93,16.93v33.86h-33.86c0,9.35-7.58,16.93-16.93,16.93s-16.93-7.58-16.93-16.93h-33.86v-32.25c9.49-.86,16.93-8.83,16.93-18.54s-7.44-17.69-16.93-18.54v-32.25h33.86c0-9.35,7.58-16.93,16.93-16.93Z"/>
        <path class="cls-1" d="m419.1,280.98v32.25h-33.86c0,9.35-7.58,16.93-16.93,16.93s-16.93-7.58-16.93-16.93h-33.86v-32.25c9.49-.86,16.93-8.83,16.93-18.54s-7.44-17.69-16.93-18.54v-32.25h33.86c0-9.35,7.58-16.93,16.93-16.93s16.93,7.58,16.93,16.93h33.86v32.25c-9.49.86-16.93,8.83-16.93,18.54s7.44,17.69,16.93,18.54Z"/>
        <path class="cls-1" d="m314.11,176.68v32.25h-33.86c0,9.35-7.58,16.93-16.93,16.93s-16.93-7.58-16.93-16.93h-33.86v-32.25c9.49-.86,16.93-8.83,16.93-18.54s-7.44-17.69-16.93-18.54v-32.25h33.86c0-9.35,7.58-16.93,16.93-16.93s16.93,7.58,16.93,16.93h33.86v32.25c-9.49.86-16.93,8.83-16.93,18.54s7.44,17.69,16.93,18.54Z"/>
        <path class="cls-1" d="m1085.2,209.35h-32.25v-33.86c-9.35,0-16.93-7.58-16.93-16.93s7.58-16.93,16.93-16.93v-33.86h32.25c.86,9.49,8.83,16.93,18.54,16.93s17.69-7.44,18.54-16.93h32.25v33.86c9.35,0,16.93,7.58,16.93,16.93s-7.58,16.93-16.93,16.93v33.86h-32.25c-.86-9.49-8.83-16.93-18.54-16.93s-17.69,7.44-18.54,16.93Z"/>
        <path class="cls-1" d="m138.43,313.23h-32.25v-33.86c-9.35,0-16.93-7.58-16.93-16.93s7.58-16.93,16.93-16.93v-33.86h32.25c.86,9.49,8.83,16.93,18.54,16.93s17.69-7.44,18.54-16.93h32.25v33.86c9.35,0,16.93,7.58,16.93,16.93s-7.58,16.93-16.93,16.93v33.86h-32.25c-.86-9.49-8.83-16.93-18.54-16.93s-17.69,7.44-18.54,16.93Z"/>
        <path class="cls-1" d="m51.6,89.74c9.35,0,16.93,7.58,16.93,16.93h33.86s0,33.86,0,33.86c9.35,0,16.93,7.58,16.93,16.93s-7.58,16.93-16.93,16.93v33.86s-32.25,0-32.25,0c-.86-9.49-8.83-16.93-18.54-16.93s-17.69,7.44-18.54,16.93H.81s0-101.59,0-101.59h33.86c0-9.35,7.58-16.93,16.93-16.93Z"/>
        <path class="cls-1" d="m732.85,140.02v-32.25h-33.86c0-9.35-7.58-16.93-16.93-16.93s-16.93,7.58-16.93,16.93h-33.86v32.25c9.49.86,16.93,8.83,16.93,18.54s-7.44,17.69-16.93,18.54v32.25h32.25c.86-9.49,8.83-16.93,18.54-16.93s17.69,7.44,18.54,16.93h32.25v-32.25c-9.49-.86-16.93-8.83-16.93-18.54s7.44-17.69,16.93-18.54Z"/>
        <path class="cls-1" d="m1049.15,140.02v-32.25h-33.86c0-9.35-7.58-16.93-16.93-16.93s-16.93,7.58-16.93,16.93h-33.86v32.25c9.49.86,16.93,8.83,16.93,18.54s-7.44,17.69-16.93,18.54v32.25h32.25c.86-9.49,8.83-16.93,18.54-16.93s17.69,7.44,18.54,16.93h32.25v-32.25c-9.49-.86-16.93-8.83-16.93-18.54s7.44-17.69,16.93-18.54Z"/>
        <path class="cls-1" d="m805.47,211.64h32.25v33.86c9.35,0,16.93,7.58,16.93,16.93s-7.58,16.93-16.93,16.93v33.86h-32.25c-.86-9.49-8.83-16.93-18.54-16.93s-17.69,7.44-18.54,16.93h-32.25v-32.25c9.49-.86,16.93-8.83,16.93-18.54s-7.44-17.69-16.93-18.54v-32.25h32.25c.86,9.49,8.83,16.93,18.54,16.93s17.69-7.44,18.54-16.93Z"/>
        <path class="cls-1" d="m595.43,107.77h32.25v33.86c9.35,0,16.93,7.58,16.93,16.93s-7.58,16.93-16.93,16.93v33.86h-32.25c-.86-9.49-8.83-16.93-18.54-16.93s-17.69,7.44-18.54,16.93h-32.25v-32.25c9.49-.86,16.93-8.83,16.93-18.54s-7.44-17.69-16.93-18.54v-32.25h32.25c.86,9.49,8.83,16.93,18.54,16.93s17.69-7.44,18.54-16.93Z"/>
        <path class="cls-1" d="m106.18,349.85v-32.28h33.86c0-9.35,7.58-16.93,16.93-16.93s16.93,7.58,16.93,16.93h33.86v33.86h0c9.35,0,16.93,7.58,16.93,16.93s-7.58,16.93-16.93,16.93h0v33.86h-32.25c-.86-9.49-8.83-16.93-18.54-16.93s-17.69,7.44-18.54,16.93h-32.25v-32.28c9.33-1.01,16.59-8.91,16.59-18.51s-7.26-17.5-16.59-18.51Z"/>
        <path class="cls-1" d="m224.7,473.05c0-9.35-7.58-16.93-16.93-16.93v-33.86h-33.86c0-9.35-7.58-16.93-16.93-16.93s-16.93,7.58-16.93,16.93h-33.86v33.86h0c-9.35,0-16.93,7.58-16.93,16.93s7.58,16.93,16.93,16.93h0v33.86h32.25c.86-9.49,8.83-16.93,18.54-16.93s17.69,7.44,18.54,16.93h32.25v-33.86c9.35,0,16.93-7.58,16.93-16.93Z"/>
        <path class="cls-1" d="m436.03,156.79c0-9.35-7.58-16.93-16.93-16.93v-33.86h-33.86c0-9.35-7.58-16.93-16.93-16.93s-16.93,7.58-16.93,16.93h-33.86v33.86h0c-9.35,0-16.93,7.58-16.93,16.93s7.58,16.93,16.93,16.93h0v33.86h32.25c.86-9.49,8.83-16.93,18.54-16.93s17.69,7.44,18.54,16.93h32.25v-33.86c9.35,0,16.93-7.58,16.93-16.93Z"/>
        <path class="cls-1" d="m348.96,317.28h-32.25v33.86c-9.35,0-16.93,7.58-16.93,16.93s7.58,16.93,16.93,16.93v33.86h32.25c.86-9.49,8.83-16.93,18.54-16.93s17.69,7.44,18.54,16.93h32.25v-33.86c9.35,0,16.93-7.58,16.93-16.93s-7.58-16.93-16.93-16.93v-33.86h-32.25c-.86,9.49-8.83,16.93-18.54,16.93s-17.69-7.44-18.54-16.93Z"/>
        <path class="cls-1" d="m454.15,211.64h-32.25v33.86c-9.35,0-16.93,7.58-16.93,16.93s7.58,16.93,16.93,16.93v33.86h32.25c.86-9.49,8.83-16.93,18.54-16.93s17.69,7.44,18.54,16.93h32.25v-33.86c9.35,0,16.93-7.58,16.93-16.93s-7.58-16.93-16.93-16.93v-33.86h-32.25c-.86,9.49-8.83,16.93-18.54,16.93s-17.69-7.44-18.54-16.93Z"/>
        <path class="cls-1" d="m70.54,418.87h32.25v-33.86c9.35,0,16.93-7.58,16.93-16.93s-7.58-16.93-16.93-16.93v-33.86h-32.25c-.86,9.49-8.83,16.93-18.54,16.93s-17.69-7.44-18.54-16.93H1.21v101.59h32.25c.86-9.49,8.83-16.93,18.54-16.93s17.69,7.44,18.54,16.93Z"/>
        <path class="cls-1" d="m51.6,194.71c-9.35,0-16.93,7.58-16.93,16.93H1.21s0,101.59,0,101.59h33.46c0,9.35,7.58,16.93,16.93,16.93s16.93-7.58,16.93-16.93h34.26s0-32.25,0-32.25c-9.49-.86-16.93-8.83-16.93-18.54s7.44-17.69,16.93-18.54v-32.25s-34.26,0-34.26,0c0-9.35-7.58-16.93-16.93-16.93Z"/>
        <path class="cls-1" d="m313.11,386.62v32.25h-33.86c0,9.35-7.58,16.93-16.93,16.93s-16.93-7.58-16.93-16.93h-33.86v-32.25c9.49-.86,16.93-8.83,16.93-18.54s-7.44-17.69-16.93-18.54v-32.25h32.25c.86,9.49,8.83,16.93,18.54,16.93s17.69-7.44,18.54-16.93h32.25v32.25c-9.49.86-16.93,8.83-16.93,18.54s7.44,17.69,16.93,18.54Z"/>
        <path class="cls-1" d="m52,405.33c9.35,0,16.93,7.58,16.93,16.93h33.86s0,32.25,0,32.25c-9.49.86-16.93,8.83-16.93,18.54,0,9.71,7.44,17.69,16.93,18.54v32.25s-32.25,0-32.25,0c-.86-9.49-8.83-16.93-18.54-16.93s-17.69,7.44-18.54,16.93H1.21s0-101.59,0-101.59h33.86c0-9.35,7.58-16.93,16.93-16.93Z"/>
        <path class="cls-1" d="m1036.74,52.16c0,9.35,7.58,16.93,16.93,16.93v33.86s33.86,0,33.86,0c0,9.35,7.58,16.93,16.93,16.93,9.35,0,16.93-7.58,16.93-16.93h33.86s0-32.25,0-32.25c-9.49-.86-16.93-8.83-16.93-18.54,0-9.71,7.44-17.69,16.93-18.54V1.37s-101.59,0-101.59,0v33.86c-9.35,0-16.93,7.58-16.93,16.93Z"/>
        <path class="cls-1" d="m825.18,51.82c0,9.35,7.58,16.93,16.93,16.93v33.86s33.86,0,33.86,0c0,9.35,7.58,16.93,16.93,16.93,9.35,0,16.93-7.58,16.93-16.93h33.86s0-32.25,0-32.25c-9.49-.86-16.93-8.83-16.93-18.54,0-9.71,7.44-17.69,16.93-18.54V1.03s-101.59,0-101.59,0v33.86c-9.35,0-16.93,7.58-16.93,16.93Z"/>
        <path class="cls-1" d="m509.89,51.79c0,9.35,7.58,16.93,16.93,16.93v33.86s33.86,0,33.86,0c0,9.35,7.58,16.93,16.93,16.93s16.93-7.58,16.93-16.93h33.86s0-32.25,0-32.25c-9.49-.86-16.93-8.83-16.93-18.54,0-9.71,7.44-17.69,16.93-18.54V1s-101.59,0-101.59,0v33.86c-9.35,0-16.93,7.58-16.93,16.93Z"/>
        <path class="cls-1" d="m737.19,70.08v32.25h33.86c0,9.35,7.58,16.93,16.93,16.93s16.93-7.58,16.93-16.93h33.86v-32.25c-9.49-.86-16.93-8.83-16.93-18.54s7.44-17.69,16.93-18.54V.74h-101.59v32.25c9.49.86,16.93,8.83,16.93,18.54s-7.44,17.69-16.93,18.54Z"/>
        <path class="cls-1" d="m421.85,70.08v32.25h33.86c0,9.35,7.58,16.93,16.93,16.93s16.93-7.58,16.93-16.93h33.86v-32.25c-9.49-.86-16.93-8.83-16.93-18.54s7.44-17.69,16.93-18.54V.74h-101.59v32.25c9.49.86,16.93,8.83,16.93,18.54s-7.44,17.69-16.93,18.54Z"/>
        <path class="cls-1" d="m106.18,70.34v32.25h33.86c0,9.35,7.58,16.93,16.93,16.93s16.93-7.58,16.93-16.93h33.86v-32.25c-9.49-.86-16.93-8.83-16.93-18.54s7.44-17.69,16.93-18.54V1h-101.59v32.25c9.49.86,16.93,8.83,16.93,18.54s-7.44,17.69-16.93,18.54Z"/>
        <path class="cls-1" d="m749.79,50.77c0-9.35-7.58-16.93-16.93-16.93V.37s-101.59,0-101.59,0v33.46h0c-9.35,0-16.93,7.58-16.93,16.93,0,9.35,7.58,16.93,16.93,16.93h0v34.26s32.25,0,32.25,0c.86-9.49,8.83-16.93,18.54-16.93,9.71,0,17.69,7.44,18.54,16.93h32.25s0-34.26,0-34.26c9.35,0,16.93-7.58,16.93-16.93Z"/>
        <path class="cls-1" d="m331.04,51.77c0-9.35-7.58-16.93-16.93-16.93V1.37s-101.59,0-101.59,0v33.46h0c-9.35,0-16.93,7.58-16.93,16.93,0,9.35,7.58,16.93,16.93,16.93h0v34.26s32.25,0,32.25,0c.86-9.49,8.83-16.93,18.54-16.93,9.71,0,17.69,7.44,18.54,16.93h32.25s0-34.26,0-34.26c9.35,0,16.93-7.58,16.93-16.93Z"/>
        <path class="cls-1" d="m1277.6,50.77c0-9.35-7.58-16.93-16.93-16.93V.37s-101.59,0-101.59,0v33.46h0c-9.35,0-16.93,7.58-16.93,16.93,0,9.35,7.58,16.93,16.93,16.93h0v34.26s32.25,0,32.25,0c.86-9.49,8.83-16.93,18.54-16.93,9.71,0,17.69,7.44,18.54,16.93h32.25s0-34.26,0-34.26c9.35,0,16.93-7.58,16.93-16.93Z"/>
        <path class="cls-1" d="m435.23,52.12c0,9.35-7.58,16.93-16.93,16.93v33.86s-32.25,0-32.25,0c-.86-9.49-8.83-16.93-18.54-16.93s-17.69,7.44-18.54,16.93h-32.25s0-32.25,0-32.25c9.49-.86,16.93-8.83,16.93-18.54s-7.44-17.69-16.93-18.54V1.32s101.59,0,101.59,0v33.86c9.35,0,16.93,7.58,16.93,16.93Z"/>
        <path class="cls-1" d="m930.63,52.12c0,9.35,7.58,16.93,16.93,16.93v33.86s32.25,0,32.25,0c.86-9.49,8.83-16.93,18.54-16.93s17.69,7.44,18.54,16.93h32.25s0-32.25,0-32.25c-9.49-.86-16.93-8.83-16.93-18.54s7.44-17.69,16.93-18.54V1.32s-101.59,0-101.59,0v33.86c-9.35,0-16.93,7.58-16.93,16.93Z"/>
        <path class="cls-1" d="m102.33,68.22v34.11h-32.49c-.86-9.56-8.89-17.05-18.68-17.05s-17.82,7.49-18.68,17.05H0V0h102.33v34.11c9.42,0,17.05,7.64,17.05,17.05s-7.64,17.05-17.05,17.05Z"/>
        <path class="cls-1" d="m1299.9,103.27h-34.11v-32.49c9.56-.86,17.05-8.89,17.05-18.68s-7.49-17.82-17.05-18.68V.94h102.33v102.33h-34.11c0,9.42-7.64,17.05-17.05,17.05s-17.05-7.64-17.05-17.05Z"/>
      </g>
    </g>
  </g>
</svg>