<?xml version="1.0" encoding="UTF-8"?>
<svg id="_レイヤー_2" data-name="レイヤー 2" xmlns="http://www.w3.org/2000/svg" xmlns:xlink="http://www.w3.org/1999/xlink" viewBox="0 0 1365.94 543.2">
  <defs>
    <style>
      .cls-1 {
        fill: #333;
      }

      .cls-2 {
        filter: url(#drop-shadow-1);
      }
    </style>
    <filter id="drop-shadow-1" filterUnits="userSpaceOnUse">
      <feOffset dx="3" dy="3"/>
      <feGaussianBlur result="blur" stdDeviation="5"/>
      <feFlood flood-color="#000" flood-opacity=".4"/>
      <feComposite in2="blur" operator="in"/>
      <feComposite in="SourceGraphic"/>
    </filter>
  </defs>
  <g id="idea">
    <g>
      <path class="cls-1" d="m0,524.11h34.61c-.45,9.83,7.48,18.05,16.97,18.06,9.12,0,16.89-7.58,17.02-17.02l34.56-1.03h36.76c-1.02,10.25,7.14,19.09,16.89,19.09s17.91-8.84,16.89-19.09h34.7l1.03-34.56c9.45-.13,17.03-7.9,17.02-17.02,0-9.49-8.23-17.42-18.06-16.97v-36.68h36.62c-.55,9.75,7.33,18.05,16.97,18.06,9.64,0,17.52-8.3,16.97-18.06h71.36c-.55,9.75,7.33,18.06,16.97,18.06s17.52-8.3,16.97-18.06h71.29c-.55,9.75,7.33,18.06,16.97,18.06s17.52-8.3,16.97-18.06h34.61v-32.55c-10.06-.53-18.06-8.96-18.06-19.04s7.99-18.5,18.06-19.03l-.06-34.61h34.68c.53-10.06,8.96-18.05,19.03-18.06,10.08,0,18.5,7.99,19.04,18.06h67.17c.53-10.06,8.96-18.06,19.03-18.06s18.5,7.99,19.03,18.06h67.17c.53-10.06,8.96-18.05,19.03-18.06,10.08,0,18.5,7.99,19.04,18.06h32.55v-32.55c-10.06-.53-18.06-8.96-18.06-19.03s7.99-18.5,18.06-19.03v-34.61h36.61c-.55,9.75,7.33,18.05,16.97,18.06s17.52-8.3,16.97-18.06h69.17c.53-10.06,8.96-18.06,19.03-18.06s18.5,7.99,19.03,18.06h67.29c.53-10.06,8.96-18.05,19.03-18.06,10.08,0,18.5,7.99,19.04,18.06h32.55v-32.55c-10.06-.53-18.06-8.96-18.06-19.03s7.99-18.5,18.06-19.03v-34.61h36.68c-.55,9.75,7.33,18.06,16.97,18.06s17.52-8.3,16.97-18.06h69.17c.53-10.06,8.96-18.06,19.04-18.06s18.5,7.99,19.03,18.06h32.55V0L0,.06v524.05Z"/>
      <g class="cls-2">
        <path class="cls-1" d="m70.62,103.24h32.55v-34.61c.34.02.68.05,1.03.05,9.4,0,17.02-7.62,17.02-17.02s-7.62-17.02-17.02-17.02c-.35,0-.69.03-1.03.05V.06H0v103.17h32.55c.54-10.06,8.84-18.06,19.03-18.06s18.5,8,19.03,18.06Z"/>
        <path class="cls-1" d="m1295.32,103.17h-32.55v-34.61c-.34.02-.68.05-1.03.05-9.4,0-17.02-7.62-17.02-17.02s7.62-17.02,17.02-17.02c.35,0,.69.03,1.03.05V0h103.17v103.17h-32.55c-.54-10.06-8.84-18.06-19.03-18.06s-18.5,8-19.03,18.06Z"/>
        <path class="cls-1" d="m209.44,173.85c-.35,0-.69-.03-1.03-.05v34.61h-32.55c-.54-10.06-8.84-18.06-19.03-18.06s-18.5,8-19.03,18.06h-32.55v-34.61c-.34.02-.68.05-1.03.05-9.4,0-17.02-7.62-17.02-17.02s7.62-17.02,17.02-17.02c.35,0,.69.03,1.03.05v-34.61h32.55c.54,10.06,8.84,18.06,19.03,18.06s18.5-8,19.03-18.06h32.55v34.61c.34-.02.68-.05,1.03-.05,9.4,0,17.02,7.62,17.02,17.02s-7.62,17.02-17.02,17.02Z"/>
        <path class="cls-1" d="m735.62,279.08c-.35,0-.69-.03-1.03-.05v34.61h-32.55c-.54-10.06-8.84-18.06-19.03-18.06s-18.5,8-19.03,18.06h-32.55v-34.61c-.34.02-.68.05-1.03.05-9.4,0-17.02-7.62-17.02-17.02s7.62-17.02,17.02-17.02c.35,0,.69.03,1.03.05v-34.61h32.55c.54,10.06,8.84,18.06,19.03,18.06s18.5-8,19.03-18.06h32.55v34.61c.34-.02.68-.05,1.03-.05,9.4,0,17.02,7.62,17.02,17.02s-7.62,17.02-17.02,17.02Z"/>
        <path class="cls-1" d="m419.91,279.08c-.35,0-.69-.03-1.03-.05v34.61h-32.55c-.54-10.06-8.84-18.06-19.03-18.06s-18.5,8-19.03,18.06h-32.55v-34.61c-.34.02-.68.05-1.03.05-9.4,0-17.02-7.62-17.02-17.02s7.62-17.02,17.02-17.02c.35,0,.69.03,1.03.05v-34.61h32.55c.54,10.06,8.84,18.06,19.03,18.06s18.5-8,19.03-18.06h32.55v34.61c.34-.02.68-.05,1.03-.05,9.4,0,17.02,7.62,17.02,17.02s-7.62,17.02-17.02,17.02Z"/>
        <path class="cls-1" d="m525.15,173.85c-.35,0-.69-.03-1.03-.05v34.61h-32.55c-.54-10.06-8.84-18.06-19.03-18.06s-18.5,8-19.03,18.06h-32.55v-34.61c-.34.02-.68.05-1.03.05-9.4,0-17.02-7.62-17.02-17.02s7.62-17.02,17.02-17.02c.35,0,.69.03,1.03.05v-34.61h32.55c.54,10.06,8.84,18.06,19.03,18.06s18.5-8,19.03-18.06h32.55v34.61c.34-.02.68-.05,1.03-.05,9.4,0,17.02,7.62,17.02,17.02s-7.62,17.02-17.02,17.02Z"/>
        <path class="cls-1" d="m350.27,209.44c0-.35.03-.69.05-1.03h-34.61v-32.55c10.06-.54,18.06-8.84,18.06-19.03s-8-18.5-18.06-19.03v-32.55h34.61c-.02-.34-.05-.68-.05-1.03,0-9.4,7.62-17.02,17.02-17.02s17.02,7.62,17.02,17.02c0,.35-.03.69-.05,1.03h34.61v32.55c-10.06.54-18.06,8.84-18.06,19.03s8,18.5,18.06,19.03v32.55h-34.61c.02.34.05.68.05,1.03,0,9.4-7.62,17.02-17.02,17.02s-17.02-7.62-17.02-17.02Z"/>
        <path class="cls-1" d="m455.51,419.91c0-.35.03-.69.05-1.03h-34.61v-32.55c10.06-.54,18.06-8.84,18.06-19.03s-8-18.5-18.06-19.03v-32.55h34.61c-.02-.34-.05-.68-.05-1.03,0-9.4,7.62-17.02,17.02-17.02s17.02,7.62,17.02,17.02c0,.35-.03.69-.05,1.03h34.61v32.55c-10.06.54-18.06,8.84-18.06,19.03s8,18.5,18.06,19.03v32.55h-34.61c.02.34.05.68.05,1.03,0,9.4-7.62,17.02-17.02,17.02s-17.02-7.62-17.02-17.02Z"/>
        <path class="cls-1" d="m0,491.56v32.55h34.61c-.02.34-.05.68-.05,1.03,0,9.4,7.62,17.02,17.02,17.02s17.02-7.62,17.02-17.02c0-.35-.03-.69-.05-1.03h34.61v-32.55c-10.06-.54-18.06-8.84-18.06-19.03s8-18.5,18.06-19.03v-32.55h-34.61c.02-.34.05-.68.05-1.03,0-9.4-7.62-17.02-17.02-17.02s-17.02,7.62-17.02,17.02c0,.35.03.69.05,1.03H0v70.62Z"/>
        <path class="cls-1" d="m348.26,0h-32.55s0,34.61,0,34.61c-.34-.02-.68-.05-1.03-.05-9.4,0-17.02,7.62-17.02,17.02,0,9.4,7.62,17.02,17.02,17.02.35,0,.69-.03,1.03-.05v34.61s32.55,0,32.55,0c.54-10.06,8.84-18.06,19.03-18.06s18.5,8,19.03,18.06h32.55s0-34.61,0-34.61c.34.02.68.05,1.03.05,9.4,0,17.02-7.62,17.02-17.02,0-9.4-7.62-17.02-17.02-17.02-.35,0-.69.03-1.03.05V0s-32.55,0-32.55,0h-38.07Z"/>
        <path class="cls-1" d="m1084.91,0h-32.55s0,34.61,0,34.61c-.34-.02-.68-.05-1.03-.05-9.4,0-17.02,7.62-17.02,17.02,0,9.4,7.62,17.02,17.02,17.02.35,0,.69-.03,1.03-.05v34.61s32.55,0,32.55,0c.54-10.06,8.84-18.06,19.03-18.06s18.5,8,19.03,18.06h32.55s0-34.61,0-34.61c.34.02.68.05,1.03.05,9.4,0,17.02-7.62,17.02-17.02s-7.62-17.02-17.02-17.02c-.35,0-.69.03-1.03.05V0s-32.55,0-32.55,0h-38.07Z"/>
        <path class="cls-1" d="m43.74,527.75c-.34.02-.68.05-1.03.05"/>
        <path class="cls-1" d="m0,175.86v32.55h34.61c-.02.34-.05.68-.05,1.03,0,9.4,7.62,17.02,17.02,17.02s17.02-7.62,17.02-17.02c0-.35-.03-.69-.05-1.03h34.61v-32.55c-10.06-.54-18.06-8.84-18.06-19.03s8-18.5,18.06-19.03v-32.55h-34.61c.02-.34.05-.68.05-1.03,0-9.4-7.62-17.02-17.02-17.02s-17.02,7.62-17.02,17.02c0,.35.03.69.05,1.03H0v70.62Z"/>
        <path class="cls-1" d="m43.74,212.05c-.34.02-.68.05-1.03.05"/>
        <path class="cls-1" d="m0,245.09v-34.61h32.55c.54,10.06,8.84,18.06,19.03,18.06s18.5-8,19.03-18.06h32.55v34.61c.34-.02.68-.05,1.03-.05,9.4,0,17.02,7.62,17.02,17.02s-7.62,17.02-17.02,17.02c-.35,0-.69-.03-1.03-.05v34.61h-32.55c-.54-10.06-8.84-18.06-19.03-18.06s-18.5,8-19.03,18.06H0v-34.61"/>
        <path class="cls-1" d="m279.03,0h34.61v32.55c-10.06.54-18.06,8.84-18.06,19.03s8,18.5,18.06,19.03v32.55h-34.61c.02.34.05.68.05,1.03,0,9.4-7.62,17.02-17.02,17.02s-17.02-7.62-17.02-17.02c0-.35.03-.69.05-1.03h-34.61v-32.55c10.06-.54,18.06-8.84,18.06-19.03s-8-18.5-18.06-19.03V0h34.61"/>
        <path class="cls-1" d="m1226.15,0h34.61v32.55c-10.06.54-18.06,8.84-18.06,19.03s8,18.5,18.06,19.03v32.55h-34.61c.02.34.05.68.05,1.03,0,9.4-7.62,17.02-17.02,17.02s-17.02-7.62-17.02-17.02c0-.35.03-.69.05-1.03h-34.61v-32.55c10.06-.54,18.06-8.84,18.06-19.03s-8-18.5-18.06-19.03V0h34.61"/>
        <path class="cls-1" d="m1015.68,0h34.61v32.55c-10.06.54-18.06,8.84-18.06,19.03s8,18.5,18.06,19.03v32.55h-32.55c-.54-10.06-8.84-18.06-19.03-18.06s-18.5,8-19.03,18.06h-32.55v-32.55c10.06-.54,18.06-8.84,18.06-19.03s-8-18.5-18.06-19.03V0h68.56Z"/>
        <path class="cls-1" d="m699.97,0h34.61v32.55c-10.06.54-18.06,8.84-18.06,19.03s8,18.5,18.06,19.03v32.55h-32.55c-.54-10.06-8.84-18.06-19.03-18.06s-18.5,8-19.03,18.06h-32.55v-32.55c10.06-.54,18.06-8.84,18.06-19.03s-8-18.5-18.06-19.03V0h68.56Z"/>
        <path class="cls-1" d="m1137.47,156.82c0-10.19,8-18.5,18.06-19.03v-32.55h-34.61c.02-.34.05-.68.05-1.03,0-9.4-7.62-17.02-17.02-17.02s-17.02,7.62-17.02,17.02c0,.35.03.69.05,1.03h-34.61v32.55c10.06.54,18.06,8.84,18.06,19.03s-8,18.5-18.06,19.03v32.55h32.55c.54-10.06,8.84-18.06,19.03-18.06s18.5,8,19.03,18.06h32.55v-32.55c-10.06-.54-18.06-8.84-18.06-19.03Z"/>
        <path class="cls-1" d="m821.77,262.06c0-10.19,8-18.5,18.06-19.03v-32.55h-34.61c.02-.34.05-.68.05-1.03,0-9.4-7.62-17.02-17.02-17.02s-17.02,7.62-17.02,17.02c0,.35.03.69.05,1.03h-34.61v32.55c10.06.54,18.06,8.84,18.06,19.03s-8,18.5-18.06,19.03v32.55h32.55c.54-10.06,8.84-18.06,19.03-18.06s18.5,8,19.03,18.06h32.55v-32.55c-10.06-.54-18.06-8.84-18.06-19.03Z"/>
        <path class="cls-1" d="m611.3,262.06c0-10.19,8-18.5,18.06-19.03v-32.55h-34.61c.02-.34.05-.68.05-1.03,0-9.4-7.62-17.02-17.02-17.02s-17.02,7.62-17.02,17.02c0,.35.03.69.05,1.03h-34.61v32.55c10.06.54,18.06,8.84,18.06,19.03s-8,18.5-18.06,19.03v32.55h32.55c.54-10.06,8.84-18.06,19.03-18.06s18.5,8,19.03,18.06h32.55v-32.55c-10.06-.54-18.06-8.84-18.06-19.03Z"/>
        <path class="cls-1" d="m788.24,190.35c10.19,0,18.5,8,19.03,18.06h32.55v-34.61c.34.02.68.05,1.03.05,9.4,0,17.02-7.62,17.02-17.02s-7.62-17.02-17.02-17.02c-.35,0-.69.03-1.03.05v-34.61h-32.55c-.54,10.06-8.84,18.06-19.03,18.06s-18.5-8-19.03-18.06h-32.55v32.55c10.06.54,18.06,8.84,18.06,19.03s-8,18.5-18.06,19.03v32.55h32.55c.54-10.06,8.84-18.06,19.03-18.06Z"/>
        <path class="cls-1" d="m295.59,262.06c0,10.19,8,18.5,18.06,19.03v32.55h-34.61c.02.34.05.68.05,1.03,0,9.4-7.62,17.02-17.02,17.02s-17.02-7.62-17.02-17.02c0-.35.03-.69.05-1.03h-34.61v-32.55c10.06-.54,18.06-8.84,18.06-19.03s-8-18.5-18.06-19.03v-32.55h32.55c.54,10.06,8.84,18.06,19.03,18.06s18.5-8,19.03-18.06h32.55v32.55c-10.06.54-18.06,8.84-18.06,19.03Z"/>
        <path class="cls-1" d="m910.3.52h34.32v34.32c.34-.02.68-.05,1.02-.05,9.32,0,16.88,7.56,16.88,16.88s-7.56,16.88-16.88,16.88c-.35,0-.68-.03-1.02-.05v34.32h-34.41c.08.67.14,1.35.14,2.05,0,9.32-7.56,16.88-16.88,16.88s-16.88-7.56-16.88-16.88c0-.69.05-1.37.14-2.05h-34.41v-34.32c-.34.02-.68.05-1.02.05-9.32,0-16.88-7.56-16.88-16.88s7.56-16.88,16.88-16.88c.35,0,.68.03,1.02.05V.52h67.98Z"/>
        <path class="cls-1" d="m209.44,489.55c-.35,0-.69-.03-1.03-.05v34.61h-34.7c.08.68.14,1.36.14,2.06,0,9.4-7.62,17.02-17.02,17.02s-17.02-7.62-17.02-17.02c0-.7.06-1.39.14-2.06h-34.7v-34.61c-.34.02-.68.05-1.03.05-9.4,0-17.02-7.62-17.02-17.02s7.62-17.02,17.02-17.02c.35,0,.69.03,1.03.05v-34.61h34.61c-.02-.34-.05-.68-.05-1.03,0-9.4,7.62-17.02,17.02-17.02s17.02,7.62,17.02,17.02c0,.35-.03.69-.05,1.03h34.61v34.61c.34-.02.68-.05,1.03-.05,9.4,0,17.02,7.62,17.02,17.02s-7.62,17.02-17.02,17.02Z"/>
        <path class="cls-1" d="m209.44,384.32c-.35,0-.69-.03-1.03-.05v34.61h-32.55c-.54-10.06-8.84-18.06-19.03-18.06s-18.5,8-19.03,18.06h-32.55v-34.61c-.34.02-.68.05-1.03.05-9.4,0-17.02-7.62-17.02-17.02s7.62-17.02,17.02-17.02c.35,0,.69.03,1.03.05v-34.61h34.61c-.02-.34-.05-.68-.05-1.03,0-9.4,7.62-17.02,17.02-17.02s17.02,7.62,17.02,17.02c0,.35-.03.69-.05,1.03h34.61v34.61c.34-.02.68-.05,1.03-.05,9.4,0,17.02,7.62,17.02,17.02s-7.62,17.02-17.02,17.02Z"/>
        <path class="cls-1" d="m665.98,209.44c0-.35.03-.69.05-1.03h-34.61s0-32.55,0-32.55c10.06-.54,18.06-8.84,18.06-19.03,0-10.19-8-18.5-18.06-19.03v-32.55s34.61,0,34.61,0c-.02-.34-.05-.68-.05-1.03,0-9.4,7.62-17.02,17.02-17.02s17.02,7.62,17.02,17.02c0,.35-.03.69-.05,1.03h34.61s0,34.61,0,34.61c.34-.02.68-.05,1.03-.05,9.4,0,17.02,7.62,17.02,17.02s-7.62,17.02-17.02,17.02c-.35,0-.69-.03-1.03-.05v34.61s-34.61,0-34.61,0c.02.34.05.68.05,1.03,0,9.4-7.62,17.02-17.02,17.02-9.4,0-17.02-7.62-17.02-17.02Z"/>
        <path class="cls-1" d="m350.27,419.91c0-.35.03-.69.05-1.03h-34.61s0-32.55,0-32.55c10.06-.54,18.06-8.84,18.06-19.03s-8-18.5-18.06-19.03v-32.55s34.61,0,34.61,0c-.02-.34-.05-.68-.05-1.03,0-9.4,7.62-17.02,17.02-17.02,9.4,0,17.02,7.62,17.02,17.02,0,.35-.03.69-.05,1.03h34.61s0,34.61,0,34.61c.34-.02.68-.05,1.03-.05,9.4,0,17.02,7.62,17.02,17.02,0,9.4-7.62,17.02-17.02,17.02-.35,0-.69-.03-1.03-.05v34.61s-34.61,0-34.61,0c.02.34.05.68.05,1.03,0,9.4-7.62,17.02-17.02,17.02-9.4,0-17.02-7.62-17.02-17.02Z"/>
        <path class="cls-1" d="m807.21,0h32.55v32.55c-10.06.54-18.06,8.84-18.06,19.03s8,18.5,18.06,19.03v32.55h-34.62c.02.34.05.68.05,1.03,0,9.4-7.62,17.02-17.02,17.02s-17.02-7.62-17.02-17.02c0-.35.03-.69.05-1.03h-34.61v-34.61c-.34.02-.68.05-1.03.05-9.4,0-17.02-7.62-17.02-17.02s7.62-17.02,17.02-17.02c.35,0,.69.03,1.03.05V0h70.62Z"/>
        <path class="cls-1" d="m0,350.39v-34.61h34.61c-.02-.34-.05-.68-.05-1.03,0-9.4,7.62-17.02,17.02-17.02s17.02,7.62,17.02,17.02c0,.35-.03.69-.05,1.03h34.62v32.55c-10.06.54-18.06,8.84-18.06,19.03s8,18.5,18.06,19.03v32.55h-32.55c-.54-10.06-8.84-18.06-19.03-18.06s-18.5,8-19.03,18.06H0v-68.56Z"/>
        <path class="cls-1" d="m228.46,367.29c0,10.19-8,18.5-18.06,19.03v32.55h34.62c-.02.34-.05.68-.05,1.03,0,9.4,7.62,17.02,17.02,17.02s17.02-7.62,17.02-17.02c0-.35-.03-.69-.05-1.03h34.61v-34.61c.34.02.68.05,1.03.05,9.4,0,17.02-7.62,17.02-17.02s-7.62-17.02-17.02-17.02c-.35,0-.69.03-1.03.05v-34.61h-32.55c-.54,10.06-8.84,18.06-19.03,18.06s-18.5-8-19.03-18.06h-32.55v32.55c10.06.54,18.06,8.84,18.06,19.03Z"/>
        <path class="cls-1" d="m123.29,262.12c0-10.19-8-18.5-18.06-19.03v-32.55h34.62c-.02-.34-.05-.68-.05-1.03,0-9.4,7.62-17.02,17.02-17.02s17.02,7.62,17.02,17.02c0,.35-.03.69-.05,1.03h34.61v34.61c.34-.02.68-.05,1.03-.05,9.4,0,17.02,7.62,17.02,17.02s-7.62,17.02-17.02,17.02c-.35,0-.69-.03-1.03-.05v34.61h-32.55c-.54-10.06-8.84-18.06-19.03-18.06s-18.5,8-19.03,18.06h-32.55v-32.55c10.06-.54,18.06-8.84,18.06-19.03Z"/>
        <path class="cls-1" d="m438.93,262.06c0-10.19-8-18.5-18.06-19.03v-32.55h34.62c-.02-.34-.05-.68-.05-1.03,0-9.4,7.62-17.02,17.02-17.02s17.02,7.62,17.02,17.02c0,.35-.03.69-.05,1.03h34.61v34.61c.34-.02.68-.05,1.03-.05,9.4,0,17.02,7.62,17.02,17.02s-7.62,17.02-17.02,17.02c-.35,0-.69-.03-1.03-.05v34.61h-32.55c-.54-10.06-8.84-18.06-19.03-18.06s-18.5,8-19.03,18.06h-32.55v-32.55c10.06-.54,18.06-8.84,18.06-19.03Z"/>
        <path class="cls-1" d="m228.46,156.82c0,10.19-8,18.5-18.06,19.03v32.55h34.62c-.02.34-.05.68-.05,1.03,0,9.4,7.62,17.02,17.02,17.02s17.02-7.62,17.02-17.02c0-.35-.03-.69-.05-1.03h34.61v-34.61c.34.02.68.05,1.03.05,9.4,0,17.02-7.62,17.02-17.02s-7.62-17.02-17.02-17.02c-.35,0-.69.03-1.03.05v-34.61h-32.55c-.54,10.06-8.84,18.06-19.03,18.06s-18.5-8-19.03-18.06h-32.55v32.55c10.06.54,18.06,8.84,18.06,19.03Z"/>
        <path class="cls-1" d="m544.17,156.82c0-10.19-8-18.5-18.06-19.03v-32.55h34.62c-.02-.34-.05-.68-.05-1.03,0-9.4,7.62-17.02,17.02-17.02s17.02,7.62,17.02,17.02c0,.35-.03.69-.05,1.03h34.61v34.61c.34-.02.68-.05,1.03-.05,9.4,0,17.02,7.62,17.02,17.02s-7.62,17.02-17.02,17.02c-.35,0-.69-.03-1.03-.05v34.61h-32.55c-.54-10.06-8.84-18.06-19.03-18.06s-18.5,8-19.03,18.06h-32.55v-32.55c10.06-.54,18.06-8.84,18.06-19.03Z"/>
        <path class="cls-1" d="m859.88,156.82c0,10.19-8,18.5-18.06,19.03v32.55h34.62c-.02.34-.05.68-.05,1.03,0,9.4,7.62,17.02,17.02,17.02s17.02-7.62,17.02-17.02c0-.35-.03-.69-.05-1.03h34.61v-34.61c.34.02.68.05,1.03.05,9.4,0,17.02-7.62,17.02-17.02s-7.62-17.02-17.02-17.02c-.35,0-.69.03-1.03.05v-34.61h-32.55c-.54,10.06-8.84,18.06-19.03,18.06s-18.5-8-19.03-18.06h-32.55v32.55c10.06.54,18.06,8.84,18.06,19.03Z"/>
        <path class="cls-1" d="m965.05,156.82c0-10.19-8-18.5-18.06-19.03v-32.55h34.62c-.02-.34-.05-.68-.05-1.03,0-9.4,7.62-17.02,17.02-17.02s17.02,7.62,17.02,17.02c0,.35-.03.69-.05,1.03h34.61v34.61c.34-.02.68-.05,1.03-.05,9.4,0,17.02,7.62,17.02,17.02s-7.62,17.02-17.02,17.02c-.35,0-.69-.03-1.03-.05v34.61h-32.55c-.54-10.06-8.84-18.06-19.03-18.06s-18.5,8-19.03,18.06h-32.55v-32.55c10.06-.54,18.06-8.84,18.06-19.03Z"/>
        <path class="cls-1" d="m175.79.06h32.55v34.61c.34-.02.68-.05,1.03-.05,9.4,0,17.02,7.62,17.02,17.02s-7.62,17.02-17.02,17.02c-.35,0-.69-.03-1.03-.05v34.61h-34.61c.02.34.05.68.05,1.03,0,9.4-7.62,17.02-17.02,17.02s-17.02-7.62-17.02-17.02c0-.35.03-.69.05-1.03h-34.62v-32.55c10.06-.54,18.06-8.84,18.06-19.03s-8-18.5-18.06-19.03V.06h70.62Z"/>
        <path class="cls-1" d="m491.5,0h32.55v34.61c.34-.02.68-.05,1.03-.05,9.4,0,17.02,7.62,17.02,17.02s-7.62,17.02-17.02,17.02c-.35,0-.69-.03-1.03-.05v34.61h-34.61c.02.34.05.68.05,1.03,0,9.4-7.62,17.02-17.02,17.02s-17.02-7.62-17.02-17.02c0-.35.03-.69.05-1.03h-34.62v-32.55c10.06-.54,18.06-8.84,18.06-19.03s-8-18.5-18.06-19.03V0h70.62Z"/>
        <path class="cls-1" d="m594.67.06h34.61v34.61c.34-.02.68-.05,1.03-.05,9.4,0,17.02,7.62,17.02,17.02s-7.62,17.02-17.02,17.02c-.35,0-.69-.03-1.03-.05v34.61h-32.55c-.54-10.06-8.84-18.06-19.03-18.06s-18.5,8-19.03,18.06h-32.55v-32.55c10.06-.54,18.06-8.84,18.06-19.03s-8-18.5-18.06-19.03V.06h68.56Z"/>
      </g>
    </g>
  </g>
</svg>