<?xml version="1.0" encoding="UTF-8"?>
<svg id="_レイヤー_2" data-name="レイヤー 2" xmlns="http://www.w3.org/2000/svg" xmlns:xlink="http://www.w3.org/1999/xlink" viewBox="0 0 1366 543">
  <defs>
    <style>
      .cls-1 {
        fill: #333;
      }

      .cls-2 {
        filter: url(#drop-shadow-1);
      }
    </style>
    <filter id="drop-shadow-1" filterUnits="userSpaceOnUse">
      <feOffset dx="3" dy="3"/>
      <feGaussianBlur result="blur" stdDeviation="5"/>
      <feFlood flood-color="#000" flood-opacity=".4"/>
      <feComposite in2="blur" operator="in"/>
      <feComposite in="SourceGraphic"/>
    </filter>
  </defs>
  <g id="idea">
    <g>
      <path class="cls-1" d="m0,523.92h34.62c-.45,9.82,7.48,18.04,16.97,18.05,9.12,0,16.89-7.57,17.02-17.02l34.56-1.03h36.76c-1.02,10.25,7.14,19.08,16.89,19.08s17.91-8.83,16.89-19.08h34.7l1.03-34.55c9.45-.13,17.03-7.9,17.02-17.02,0-9.49-8.23-17.41-18.06-16.97v-36.66h36.62c-.55,9.75,7.33,18.05,16.97,18.05,9.64,0,17.52-8.3,16.97-18.05h71.36c-.55,9.75,7.33,18.05,16.97,18.05s17.52-8.3,16.97-18.05h71.3c-.55,9.75,7.33,18.05,16.97,18.05s17.52-8.3,16.97-18.05h34.62v-32.54c-10.06-.53-18.06-8.95-18.06-19.03s7.99-18.5,18.06-19.03l-.06-34.6h34.68c.53-10.06,8.96-18.05,19.04-18.05,10.08,0,18.5,7.99,19.04,18.05h67.17c.53-10.06,8.96-18.05,19.04-18.05s18.5,7.99,19.04,18.05h67.17c.53-10.06,8.96-18.05,19.04-18.05,10.08,0,18.5,7.99,19.04,18.05h32.55v-32.54c-10.06-.53-18.06-8.95-18.06-19.03s7.99-18.5,18.06-19.03v-34.6h36.62c-.55,9.75,7.33,18.05,16.97,18.05,9.64,0,17.52-8.3,16.97-18.05h69.17c.53-10.06,8.96-18.05,19.04-18.05s18.5,7.99,19.04,18.05h67.3c.53-10.06,8.96-18.05,19.04-18.05,10.08,0,18.5,7.99,19.04,18.05h32.55v-32.54c-10.06-.53-18.06-8.95-18.06-19.03s7.99-18.5,18.06-19.03v-34.6h36.68c-.55,9.75,7.33,18.05,16.97,18.05s17.52-8.3,16.97-18.05h69.17c.53-10.06,8.96-18.05,19.04-18.05s18.5,7.99,19.04,18.05h32.55V0L0,.06v523.86Z"/>
      <g class="cls-2">
        <path class="cls-1" d="m70.62,103.2h32.55v-34.6c.34.02.68.05,1.03.05,9.4,0,17.02-7.62,17.02-17.02s-7.62-17.02-17.02-17.02c-.35,0-.69.03-1.03.05V.06H0v103.13h32.55c.54-10.06,8.84-18.05,19.04-18.05s18.5,7.99,19.04,18.05Z"/>
        <path class="cls-1" d="m1295.38,103.13h-32.55v-34.6c-.34.02-.68.05-1.03.05-9.4,0-17.02-7.62-17.02-17.02s7.62-17.02,17.02-17.02c.35,0,.69.03,1.03.05V0h103.18v103.13h-32.55c-.54-10.06-8.84-18.05-19.04-18.05s-18.5,7.99-19.04,18.05Z"/>
        <path class="cls-1" d="m209.45,173.78c-.35,0-.69-.03-1.03-.05v34.6h-32.55c-.54-10.05-8.84-18.05-19.04-18.05s-18.5,7.99-19.04,18.05h-32.55v-34.6c-.34.02-.68.05-1.03.05-9.4,0-17.02-7.62-17.02-17.02s7.62-17.02,17.02-17.02c.35,0,.69.03,1.03.05v-34.6h32.55c.54,10.05,8.84,18.05,19.04,18.05s18.5-7.99,19.04-18.05h32.55v34.6c.34-.02.68-.05,1.03-.05,9.4,0,17.02,7.62,17.02,17.02s-7.62,17.02-17.02,17.02Z"/>
        <path class="cls-1" d="m735.65,278.98c-.35,0-.69-.03-1.03-.05v34.6h-32.55c-.54-10.05-8.84-18.05-19.04-18.05s-18.5,7.99-19.04,18.05h-32.55v-34.6c-.34.02-.68.05-1.03.05-9.4,0-17.02-7.62-17.02-17.02s7.62-17.02,17.02-17.02c.35,0,.69.03,1.03.05v-34.6h32.55c.54,10.05,8.84,18.05,19.04,18.05s18.5-7.99,19.04-18.05h32.55v34.6c.34-.02.68-.05,1.03-.05,9.4,0,17.02,7.62,17.02,17.02s-7.62,17.02-17.02,17.02Z"/>
        <path class="cls-1" d="m419.93,278.98c-.35,0-.69-.03-1.03-.05v34.6h-32.55c-.54-10.05-8.84-18.05-19.04-18.05s-18.5,7.99-19.04,18.05h-32.55v-34.6c-.34.02-.68.05-1.03.05-9.4,0-17.02-7.62-17.02-17.02s7.62-17.02,17.02-17.02c.35,0,.69.03,1.03.05v-34.6h32.55c.54,10.05,8.84,18.05,19.04,18.05s18.5-7.99,19.04-18.05h32.55v34.6c.34-.02.68-.05,1.03-.05,9.4,0,17.02,7.62,17.02,17.02s-7.62,17.02-17.02,17.02Z"/>
        <path class="cls-1" d="m525.17,173.78c-.35,0-.69-.03-1.03-.05v34.6h-32.55c-.54-10.05-8.84-18.05-19.04-18.05s-18.5,7.99-19.04,18.05h-32.55v-34.6c-.34.02-.68.05-1.03.05-9.4,0-17.02-7.62-17.02-17.02s7.62-17.02,17.02-17.02c.35,0,.69.03,1.03.05v-34.6h32.55c.54,10.05,8.84,18.05,19.04,18.05s18.5-7.99,19.04-18.05h32.55v34.6c.34-.02.68-.05,1.03-.05,9.4,0,17.02,7.62,17.02,17.02s-7.62,17.02-17.02,17.02Z"/>
        <path class="cls-1" d="m350.29,209.36c0-.35.03-.69.05-1.03h-34.62v-32.54c10.06-.54,18.06-8.84,18.06-19.03s-8-18.49-18.06-19.03v-32.54h34.62c-.02-.34-.05-.68-.05-1.03,0-9.4,7.62-17.02,17.02-17.02s17.02,7.62,17.02,17.02c0,.35-.03.69-.05,1.03h34.62v32.54c-10.06.54-18.06,8.84-18.06,19.03s8,18.49,18.06,19.03v32.54h-34.62c.02.34.05.68.05,1.03,0,9.4-7.62,17.02-17.02,17.02s-17.02-7.62-17.02-17.02Z"/>
        <path class="cls-1" d="m455.53,419.75c0-.35.03-.69.05-1.03h-34.62v-32.54c10.06-.54,18.06-8.84,18.06-19.03s-8-18.49-18.06-19.03v-32.54h34.62c-.02-.34-.05-.68-.05-1.03,0-9.4,7.62-17.02,17.02-17.02s17.02,7.62,17.02,17.02c0,.35-.03.69-.05,1.03h34.62v32.54c-10.06.54-18.06,8.84-18.06,19.03s8,18.49,18.06,19.03v32.54h-34.62c.02.34.05.68.05,1.03,0,9.4-7.62,17.02-17.02,17.02s-17.02-7.62-17.02-17.02Z"/>
        <path class="cls-1" d="m0,491.38v32.54h34.62c-.02.34-.05.68-.05,1.03,0,9.4,7.62,17.02,17.02,17.02s17.02-7.62,17.02-17.02c0-.35-.03-.69-.05-1.03h34.62v-32.54c-10.06-.54-18.06-8.84-18.06-19.03s8-18.49,18.06-19.03v-32.54h-34.62c.02-.34.05-.68.05-1.03,0-9.4-7.62-17.02-17.02-17.02s-17.02,7.62-17.02,17.02c0,.35.03.69.05,1.03H0v70.59Z"/>
        <path class="cls-1" d="m348.27,0h-32.55s0,34.6,0,34.6c-.34-.02-.68-.05-1.03-.05-9.4,0-17.02,7.62-17.02,17.02,0,9.4,7.62,17.02,17.02,17.02.35,0,.69-.03,1.03-.05v34.6s32.55,0,32.55,0c.54-10.05,8.84-18.05,19.04-18.05s18.5,7.99,19.04,18.05h32.55s0-34.6,0-34.6c.34.02.68.05,1.03.05,9.4,0,17.02-7.62,17.02-17.02,0-9.4-7.62-17.02-17.02-17.02-.35,0-.69.03-1.03.05V0s-32.55,0-32.55,0h-38.07Z"/>
        <path class="cls-1" d="m1084.96,0h-32.55s0,34.6,0,34.6c-.34-.02-.68-.05-1.03-.05-9.4,0-17.02,7.62-17.02,17.02,0,9.4,7.62,17.02,17.02,17.02.35,0,.69-.03,1.03-.05v34.6s32.55,0,32.55,0c.54-10.05,8.84-18.05,19.04-18.05s18.5,7.99,19.04,18.05h32.55s0-34.6,0-34.6c.34.02.68.05,1.03.05,9.4,0,17.02-7.62,17.02-17.02,0-9.4-7.62-17.02-17.02-17.02-.35,0-.69.03-1.03.05V0s-32.55,0-32.55,0h-38.07Z"/>
        <path class="cls-1" d="m43.75,527.56c-.34.02-.68.05-1.03.05"/>
        <path class="cls-1" d="m0,175.79v32.54h34.62c-.02.34-.05.68-.05,1.03,0,9.4,7.62,17.02,17.02,17.02s17.02-7.62,17.02-17.02c0-.35-.03-.69-.05-1.03h34.62v-32.54c-10.06-.54-18.06-8.84-18.06-19.03s8-18.49,18.06-19.03v-32.54h-34.62c.02-.34.05-.68.05-1.03,0-9.4-7.62-17.02-17.02-17.02s-17.02,7.62-17.02,17.02c0,.35.03.69.05,1.03H0v70.59Z"/>
        <path class="cls-1" d="m43.75,211.97c-.34.02-.68.05-1.03.05"/>
        <path class="cls-1" d="m0,245v-34.6h32.55c.54,10.05,8.84,18.05,19.04,18.05s18.5-7.99,19.04-18.05h32.55v34.6c.34-.02.68-.05,1.03-.05,9.4,0,17.02,7.62,17.02,17.02s-7.62,17.02-17.02,17.02c-.35,0-.69-.03-1.03-.05v34.6h-32.55c-.54-10.05-8.84-18.05-19.04-18.05s-18.5,7.99-19.04,18.05H0v-34.6"/>
        <path class="cls-1" d="m279.04,0h34.62v32.54c-10.06.54-18.06,8.84-18.06,19.03s8,18.49,18.06,19.03v32.54h-34.62c.02.34.05.68.05,1.03,0,9.4-7.62,17.02-17.02,17.02s-17.02-7.62-17.02-17.02c0-.35.03-.69.05-1.03h-34.62v-32.54c10.06-.54,18.06-8.84,18.06-19.03s-8-18.49-18.06-19.03V0h34.62"/>
        <path class="cls-1" d="m1226.21,0h34.62v32.54c-10.06.54-18.06,8.84-18.06,19.03s8,18.49,18.06,19.03v32.54h-34.62c.02.34.05.68.05,1.03,0,9.4-7.62,17.02-17.02,17.02s-17.02-7.62-17.02-17.02c0-.35.03-.69.05-1.03h-34.62v-32.54c10.06-.54,18.06-8.84,18.06-19.03s-8-18.49-18.06-19.03V0h34.62"/>
        <path class="cls-1" d="m1015.73,0h34.62v32.54c-10.06.54-18.06,8.84-18.06,19.03s8,18.49,18.06,19.03v32.54h-32.55c-.54-10.05-8.84-18.05-19.04-18.05s-18.5,7.99-19.04,18.05h-32.55v-32.54c10.06-.54,18.06-8.84,18.06-19.03s-8-18.49-18.06-19.03V0h68.56Z"/>
        <path class="cls-1" d="m700,0h34.62v32.54c-10.06.54-18.06,8.84-18.06,19.03s8,18.49,18.06,19.03v32.54h-32.55c-.54-10.05-8.84-18.05-19.04-18.05s-18.5,7.99-19.04,18.05h-32.55v-32.54c10.06-.54,18.06-8.84,18.06-19.03s-8-18.49-18.06-19.03V0h68.56Z"/>
        <path class="cls-1" d="m1137.53,156.76c0-10.19,8-18.49,18.06-19.03v-32.54h-34.62c.02-.34.05-.68.05-1.03,0-9.4-7.62-17.02-17.02-17.02s-17.02,7.62-17.02,17.02c0,.35.03.69.05,1.03h-34.62v32.54c10.06.54,18.06,8.84,18.06,19.03s-8,18.49-18.06,19.03v32.54h32.55c.54-10.05,8.84-18.05,19.04-18.05s18.5,7.99,19.04,18.05h32.55v-32.54c-10.06-.54-18.06-8.84-18.06-19.03Z"/>
        <path class="cls-1" d="m821.8,261.96c0-10.19,8-18.49,18.06-19.03v-32.54h-34.62c.02-.34.05-.68.05-1.03,0-9.4-7.62-17.02-17.02-17.02s-17.02,7.62-17.02,17.02c0,.35.03.69.05,1.03h-34.62v32.54c10.06.54,18.06,8.84,18.06,19.03s-8,18.49-18.06,19.03v32.54h32.55c.54-10.05,8.84-18.05,19.04-18.05s18.5,7.99,19.04,18.05h32.55v-32.54c-10.06-.54-18.06-8.84-18.06-19.03Z"/>
        <path class="cls-1" d="m611.32,261.96c0-10.19,8-18.49,18.06-19.03v-32.54h-34.62c.02-.34.05-.68.05-1.03,0-9.4-7.62-17.02-17.02-17.02s-17.02,7.62-17.02,17.02c0,.35.03.69.05,1.03h-34.62v32.54c10.06.54,18.06,8.84,18.06,19.03s-8,18.49-18.06,19.03v32.54h32.55c.54-10.05,8.84-18.05,19.04-18.05s18.5,7.99,19.04,18.05h32.55v-32.54c-10.06-.54-18.06-8.84-18.06-19.03Z"/>
        <path class="cls-1" d="m788.27,190.28c10.19,0,18.5,7.99,19.04,18.05h32.55v-34.6c.34.02.68.05,1.03.05,9.4,0,17.02-7.62,17.02-17.02s-7.62-17.02-17.02-17.02c-.35,0-.69.03-1.03.05v-34.6h-32.55c-.54,10.06-8.84,18.05-19.04,18.05s-18.5-7.99-19.04-18.05h-32.55v32.54c10.06.54,18.06,8.84,18.06,19.03s-8,18.49-18.06,19.03v32.54h32.55c.54-10.06,8.84-18.05,19.04-18.05Z"/>
        <path class="cls-1" d="m295.6,261.96c0,10.19,8,18.49,18.06,19.03v32.54h-34.62c.02.34.05.68.05,1.03,0,9.4-7.62,17.02-17.02,17.02s-17.02-7.62-17.02-17.02c0-.35.03-.69.05-1.03h-34.62v-32.54c10.06-.54,18.06-8.84,18.06-19.03s-8-18.49-18.06-19.03v-32.54h32.55c.54,10.05,8.84,18.05,19.04,18.05s18.5-7.99,19.04-18.05h32.55v32.54c-10.06.54-18.06,8.84-18.06,19.03Z"/>
        <path class="cls-1" d="m910.34.52h34.32v34.31c.34-.02.68-.05,1.02-.05,9.32,0,16.88,7.55,16.88,16.87s-7.56,16.87-16.88,16.87c-.35,0-.68-.03-1.02-.05v34.31h-34.41c.08.67.14,1.35.14,2.05,0,9.32-7.56,16.87-16.88,16.87s-16.88-7.55-16.88-16.87c0-.69.05-1.37.14-2.05h-34.41v-34.31c-.34.02-.68.05-1.02.05-9.32,0-16.88-7.55-16.88-16.87s7.56-16.87,16.88-16.87c.35,0,.68.03,1.02.05V.52h67.98Z"/>
        <path class="cls-1" d="m209.45,489.37c-.35,0-.69-.03-1.03-.05v34.6h-34.7c.08.68.14,1.36.14,2.06,0,9.4-7.62,17.02-17.02,17.02s-17.02-7.62-17.02-17.02c0-.7.06-1.39.14-2.06h-34.7v-34.6c-.34.02-.68.05-1.03.05-9.4,0-17.02-7.62-17.02-17.02s7.62-17.02,17.02-17.02c.35,0,.69.03,1.03.05v-34.6h34.62c-.02-.34-.05-.68-.05-1.03,0-9.4,7.62-17.02,17.02-17.02s17.02,7.62,17.02,17.02c0,.35-.03.69-.05,1.03h34.62v34.6c.34-.02.68-.05,1.03-.05,9.4,0,17.02,7.62,17.02,17.02s-7.62,17.02-17.02,17.02Z"/>
        <path class="cls-1" d="m209.45,384.17c-.35,0-.69-.03-1.03-.05v34.6h-32.55c-.54-10.05-8.84-18.05-19.04-18.05s-18.5,7.99-19.04,18.05h-32.55v-34.6c-.34.02-.68.05-1.03.05-9.4,0-17.02-7.62-17.02-17.02s7.62-17.02,17.02-17.02c.35,0,.69.03,1.03.05v-34.6h34.62c-.02-.34-.05-.68-.05-1.03,0-9.4,7.62-17.02,17.02-17.02s17.02,7.62,17.02,17.02c0,.35-.03.69-.05,1.03h34.62v34.6c.34-.02.68-.05,1.03-.05,9.4,0,17.02,7.62,17.02,17.02s-7.62,17.02-17.02,17.02Z"/>
        <path class="cls-1" d="m666.01,209.36c0-.35.03-.69.05-1.03h-34.62s0-32.54,0-32.54c10.06-.54,18.06-8.84,18.06-19.03,0-10.19-8-18.49-18.06-19.03v-32.54s34.62,0,34.62,0c-.02-.34-.05-.68-.05-1.03,0-9.4,7.62-17.02,17.02-17.02,9.4,0,17.02,7.62,17.02,17.02,0,.35-.03.69-.05,1.03h34.62s0,34.6,0,34.6c.34-.02.68-.05,1.03-.05,9.4,0,17.02,7.62,17.02,17.02,0,9.4-7.62,17.02-17.02,17.02-.35,0-.69-.03-1.03-.05v34.6s-34.62,0-34.62,0c.02.34.05.68.05,1.03,0,9.4-7.62,17.02-17.02,17.02-9.4,0-17.02-7.62-17.02-17.02Z"/>
        <path class="cls-1" d="m350.29,419.75c0-.35.03-.69.05-1.03h-34.62s0-32.54,0-32.54c10.06-.54,18.06-8.84,18.06-19.03,0-10.19-8-18.49-18.06-19.03v-32.54s34.62,0,34.62,0c-.02-.34-.05-.68-.05-1.03,0-9.4,7.62-17.02,17.02-17.02,9.4,0,17.02,7.62,17.02,17.02,0,.35-.03.69-.05,1.03h34.62s0,34.6,0,34.6c.34-.02.68-.05,1.03-.05,9.4,0,17.02,7.62,17.02,17.02s-7.62,17.02-17.02,17.02c-.35,0-.69-.03-1.03-.05v34.6s-34.62,0-34.62,0c.02.34.05.68.05,1.03,0,9.4-7.62,17.02-17.02,17.02-9.4,0-17.02-7.62-17.02-17.02Z"/>
        <path class="cls-1" d="m807.24,0h32.55v32.54c-10.06.54-18.06,8.84-18.06,19.03s8,18.49,18.06,19.03v32.54h-34.62c.02.34.05.68.05,1.03,0,9.4-7.62,17.02-17.02,17.02s-17.02-7.62-17.02-17.02c0-.35.03-.69.05-1.03h-34.62v-34.6c-.34.02-.68.05-1.03.05-9.4,0-17.02-7.62-17.02-17.02s7.62-17.02,17.02-17.02c.35,0,.69.03,1.03.05V0h70.62Z"/>
        <path class="cls-1" d="m0,350.26v-34.6h34.62c-.02-.34-.05-.68-.05-1.03,0-9.4,7.62-17.02,17.02-17.02s17.02,7.62,17.02,17.02c0,.35-.03.69-.05,1.03h34.62v32.54c-10.06.54-18.06,8.84-18.06,19.03s8,18.49,18.06,19.03v32.54h-32.55c-.54-10.05-8.84-18.05-19.04-18.05s-18.5,7.99-19.04,18.05H0v-68.53Z"/>
        <path class="cls-1" d="m228.47,367.16c0,10.19-8,18.49-18.06,19.03v32.54h34.62c-.02.34-.05.68-.05,1.03,0,9.4,7.62,17.02,17.02,17.02s17.02-7.62,17.02-17.02c0-.35-.03-.69-.05-1.03h34.62v-34.6c.34.02.68.05,1.03.05,9.4,0,17.02-7.62,17.02-17.02s-7.62-17.02-17.02-17.02c-.35,0-.69.03-1.03.05v-34.6h-32.55c-.54,10.05-8.84,18.05-19.04,18.05s-18.5-7.99-19.04-18.05h-32.55v32.54c10.06.54,18.06,8.84,18.06,19.03Z"/>
        <path class="cls-1" d="m123.3,262.02c0-10.19-8-18.49-18.06-19.03v-32.54h34.62c-.02-.34-.05-.68-.05-1.03,0-9.4,7.62-17.02,17.02-17.02s17.02,7.62,17.02,17.02c0,.35-.03.69-.05,1.03h34.62v34.6c.34-.02.68-.05,1.03-.05,9.4,0,17.02,7.62,17.02,17.02s-7.62,17.02-17.02,17.02c-.35,0-.69-.03-1.03-.05v34.6h-32.55c-.54-10.05-8.84-18.05-19.04-18.05s-18.5,7.99-19.04,18.05h-32.55v-32.54c10.06-.54,18.06-8.84,18.06-19.03Z"/>
        <path class="cls-1" d="m438.95,261.96c0-10.19-8-18.49-18.06-19.03v-32.54h34.62c-.02-.34-.05-.68-.05-1.03,0-9.4,7.62-17.02,17.02-17.02s17.02,7.62,17.02,17.02c0,.35-.03.69-.05,1.03h34.62v34.6c.34-.02.68-.05,1.03-.05,9.4,0,17.02,7.62,17.02,17.02s-7.62,17.02-17.02,17.02c-.35,0-.69-.03-1.03-.05v34.6h-32.55c-.54-10.05-8.84-18.05-19.04-18.05s-18.5,7.99-19.04,18.05h-32.55v-32.54c10.06-.54,18.06-8.84,18.06-19.03Z"/>
        <path class="cls-1" d="m228.47,156.76c0,10.19-8,18.49-18.06,19.03v32.54h34.62c-.02.34-.05.68-.05,1.03,0,9.4,7.62,17.02,17.02,17.02s17.02-7.62,17.02-17.02c0-.35-.03-.69-.05-1.03h34.62v-34.6c.34.02.68.05,1.03.05,9.4,0,17.02-7.62,17.02-17.02s-7.62-17.02-17.02-17.02c-.35,0-.69.03-1.03.05v-34.6h-32.55c-.54,10.05-8.84,18.05-19.04,18.05s-18.5-7.99-19.04-18.05h-32.55v32.54c10.06.54,18.06,8.84,18.06,19.03Z"/>
        <path class="cls-1" d="m544.2,156.76c0-10.19-8-18.49-18.06-19.03v-32.54h34.62c-.02-.34-.05-.68-.05-1.03,0-9.4,7.62-17.02,17.02-17.02s17.02,7.62,17.02,17.02c0,.35-.03.69-.05,1.03h34.62v34.6c.34-.02.68-.05,1.03-.05,9.4,0,17.02,7.62,17.02,17.02s-7.62,17.02-17.02,17.02c-.35,0-.69-.03-1.03-.05v34.6h-32.55c-.54-10.05-8.84-18.05-19.04-18.05s-18.5,7.99-19.04,18.05h-32.55v-32.54c10.06-.54,18.06-8.84,18.06-19.03Z"/>
        <path class="cls-1" d="m859.92,156.76c0,10.19-8,18.49-18.06,19.03v32.54h34.62c-.02.34-.05.68-.05,1.03,0,9.4,7.62,17.02,17.02,17.02s17.02-7.62,17.02-17.02c0-.35-.03-.69-.05-1.03h34.62v-34.6c.34.02.68.05,1.03.05,9.4,0,17.02-7.62,17.02-17.02s-7.62-17.02-17.02-17.02c-.35,0-.69.03-1.03.05v-34.6h-32.55c-.54,10.05-8.84,18.05-19.04,18.05s-18.5-7.99-19.04-18.05h-32.55v32.54c10.06.54,18.06,8.84,18.06,19.03Z"/>
        <path class="cls-1" d="m965.09,156.76c0-10.19-8-18.49-18.06-19.03v-32.54h34.62c-.02-.34-.05-.68-.05-1.03,0-9.4,7.62-17.02,17.02-17.02s17.02,7.62,17.02,17.02c0,.35-.03.69-.05,1.03h34.62v34.6c.34-.02.68-.05,1.03-.05,9.4,0,17.02,7.62,17.02,17.02s-7.62,17.02-17.02,17.02c-.35,0-.69-.03-1.03-.05v34.6h-32.55c-.54-10.05-8.84-18.05-19.04-18.05s-18.5,7.99-19.04,18.05h-32.55v-32.54c10.06-.54,18.06-8.84,18.06-19.03Z"/>
        <path class="cls-1" d="m175.8.06h32.55v34.6c.34-.02.68-.05,1.03-.05,9.4,0,17.02,7.62,17.02,17.02s-7.62,17.02-17.02,17.02c-.35,0-.69-.03-1.03-.05v34.6h-34.62c.02.34.05.68.05,1.03,0,9.4-7.62,17.02-17.02,17.02s-17.02-7.62-17.02-17.02c0-.35.03-.69.05-1.03h-34.62v-32.54c10.06-.54,18.06-8.84,18.06-19.03s-8-18.49-18.06-19.03V.06h70.62Z"/>
        <path class="cls-1" d="m491.52,0h32.55v34.6c.34-.02.68-.05,1.03-.05,9.4,0,17.02,7.62,17.02,17.02s-7.62,17.02-17.02,17.02c-.35,0-.69-.03-1.03-.05v34.6h-34.62c.02.34.05.68.05,1.03,0,9.4-7.62,17.02-17.02,17.02s-17.02-7.62-17.02-17.02c0-.35.03-.69.05-1.03h-34.62v-32.54c10.06-.54,18.06-8.84,18.06-19.03s-8-18.49-18.06-19.03V0h70.62Z"/>
        <path class="cls-1" d="m594.7.06h34.62v34.6c.34-.02.68-.05,1.03-.05,9.4,0,17.02,7.62,17.02,17.02s-7.62,17.02-17.02,17.02c-.35,0-.69-.03-1.03-.05v34.6h-32.55c-.54-10.05-8.84-18.05-19.04-18.05s-18.5,7.99-19.04,18.05h-32.55v-32.54c10.06-.54,18.06-8.84,18.06-19.03s-8-18.49-18.06-19.03V.06h68.56Z"/>
      </g>
    </g>
  </g>
</svg>