<?xml version="1.0" encoding="UTF-8"?>
<svg id="_レイヤー_2" data-name="レイヤー 2" xmlns="http://www.w3.org/2000/svg" viewBox="0 0 20.85 37.5">
  <defs>
    <style>
      .cls-1 {
        fill: #b3b3b3;
      }

      .cls-2 {
        opacity: .39;
      }
    </style>
  </defs>
  <g id="top">
    <g id="bg">
      <g class="cls-2">
        <path class="cls-1" d="m20.85,8.35h-4.15c-.37-2.8-1.68-4.2-3.95-4.2-1.47,0-2.57.35-3.3,1.05s-1.1,1.75-1.1,3.15c0,1.03.4,2.02,1.2,2.95l8.85,9.9c1.63,1.83,2.45,3.8,2.45,5.9v2.05c0,2.27-.82,4.22-2.45,5.88-1.63,1.65-3.6,2.47-5.9,2.47h-4.15c-2.77,0-4.85-.69-6.25-2.08-1.4-1.38-2.1-3.47-2.1-6.27h4.2v.7c0,1.13.43,2,1.3,2.6.87.6,1.82.9,2.85.9,1.47,0,2.53-.36,3.17-1.07.65-.72.98-1.76.98-3.12,0-1.07-.4-2.05-1.2-2.95L2.45,16.3c-1.63-1.8-2.45-3.77-2.45-5.9v-2.05c0-2.27.82-4.22,2.45-5.88C4.08.83,6.05,0,8.35,0h4.15c5.23,0,8.02,2.78,8.35,8.35Z"/>
      </g>
    </g>
  </g>
</svg>